<svg width="24" height="25" viewBox="0 0 24 25" fill="none" xmlns="http://www.w3.org/2000/svg">
<rect y="0.561523" width="24" height="24" rx="12" fill="#34AADF"/>
<path d="M6.67684 12.1366C6.67684 12.1366 11.5596 10.08 13.253 9.35589C13.9021 9.06626 16.1036 8.13934 16.1036 8.13934C16.1036 8.13934 17.1197 7.73385 17.035 8.71865C17.0067 9.12418 16.781 10.5435 16.5552 12.0786C16.2165 14.2511 15.8496 16.6262 15.8496 16.6262C15.8496 16.6262 15.7931 17.2924 15.3133 17.4083C14.8335 17.5241 14.0432 17.0028 13.9021 16.8869C13.7892 16.8 11.7853 15.4966 11.0515 14.8593C10.854 14.6855 10.6282 14.338 11.0797 13.9324C12.0958 12.9766 13.3094 11.789 14.0432 11.0359C14.3819 10.6883 14.7206 9.87728 13.3094 10.8621C11.3056 12.2814 9.32988 13.6138 9.32988 13.6138C9.32988 13.6138 8.87829 13.9034 8.03159 13.6428C7.18484 13.3821 6.19701 13.0345 6.19701 13.0345C6.19701 13.0345 5.51968 12.6 6.67684 12.1366Z" fill="white"/>
</svg>
