<svg width="92" height="92" viewBox="0 0 92 92" fill="none" xmlns="http://www.w3.org/2000/svg">
<rect width="91.5618" height="91.5618" rx="45.7809" fill="#00D95F"/>
<path d="M22.8906 66.9759L26.1753 54.7627C23.5263 50.005 22.6847 44.4532 23.8049 39.1261C24.9251 33.7989 27.932 29.0537 32.2738 25.7612C36.6156 22.4688 42.0011 20.8499 47.4421 21.2016C52.883 21.5533 58.0144 23.8521 61.8946 27.6761C65.7749 31.5001 68.1437 36.5928 68.5664 42.0197C68.989 47.4466 67.4373 52.8437 64.1958 57.2206C60.9543 61.5974 56.2405 64.6605 50.9195 65.8477C45.5984 67.0349 40.027 66.2666 35.2276 63.6838L22.8906 66.9759ZM35.8224 59.1135L36.5854 59.5653C40.0617 61.6224 44.122 62.4737 48.1336 61.9865C52.1451 61.4992 55.8825 59.7009 58.7634 56.8717C61.6443 54.0424 63.5068 50.3413 64.0607 46.345C64.6146 42.3486 63.8288 38.2816 61.8257 34.7777C59.8226 31.2738 56.7148 28.5298 52.9865 26.9733C49.2582 25.4169 45.119 25.1354 41.2137 26.1728C37.3085 27.2101 33.8567 29.5081 31.3962 32.7085C28.9357 35.9089 27.6047 39.8319 27.6107 43.8663C27.6075 47.2115 28.5341 50.492 30.2876 53.3425L30.7661 54.1301L28.9298 60.9468L35.8224 59.1135Z" fill="white"/>
<path fill-rule="evenodd" clip-rule="evenodd" d="M54.3404 47.0031C53.8931 46.6429 53.3694 46.3894 52.8091 46.2619C52.2489 46.1344 51.6669 46.1362 51.1074 46.2672C50.2669 46.6158 49.7237 47.9326 49.1806 48.5911C49.0661 48.7489 48.8978 48.8596 48.7073 48.9024C48.5168 48.9452 48.3173 48.9171 48.1461 48.8234C45.0687 47.6202 42.4893 45.4135 40.8267 42.5619C40.6848 42.384 40.6177 42.158 40.6394 41.9317C40.6612 41.7053 40.77 41.4962 40.943 41.3483C41.5488 40.7496 41.9936 40.0081 42.2362 39.1923C42.2901 38.2925 42.0836 37.3962 41.6414 36.6102C41.2995 35.5084 40.6488 34.5273 39.7663 33.7829C39.3111 33.5785 38.8063 33.51 38.313 33.5856C37.8197 33.6612 37.3588 33.8776 36.9859 34.2089C36.3386 34.7664 35.8249 35.4618 35.4825 36.2438C35.14 37.0259 34.9777 37.8746 35.0074 38.7275C35.0093 39.2065 35.0702 39.6835 35.1884 40.1477C35.4887 41.263 35.9505 42.3286 36.5592 43.3107C36.9983 44.063 37.4775 44.7914 37.9946 45.4926C39.6751 47.7958 41.7876 49.7513 44.2148 51.2506C45.4328 52.0125 46.7345 52.632 48.0943 53.0968C49.5069 53.736 51.0665 53.9814 52.6075 53.8068C53.4855 53.6742 54.3174 53.3281 55.03 52.799C55.7426 52.27 56.314 51.5742 56.694 50.7729C56.9172 50.2889 56.985 49.7477 56.8879 49.2237C56.6552 48.1521 55.2197 47.5195 54.3404 47.0031Z" fill="white"/>
</svg>
