<svg width="24" height="24" viewBox="0 0 24 24" fill="none" xmlns="http://www.w3.org/2000/svg">
	<path
		d="M1.88994 1.35068C1.92233 1.09374 2.09492 0.8735 2.34112 0.787424C2.58805 0.701093 2.86022 0.76706 3.04218 0.954031L15.1956 13.4331L22.0541 20.4754C22.1802 20.605 22.25 20.7793 22.25 20.9598C22.25 21.1402 22.1802 21.3145 22.0541 21.444L22.0541 21.4441L21.3256 22.1921C21.3256 22.1921 21.3256 22.1921 21.3256 22.1921C20.6623 22.8731 19.7778 23.25 18.8369 23.25C17.896 23.25 17.0114 22.8731 16.3482 22.1921L11.9784 17.7051L10.3982 19.3277C10.2715 19.4578 10.0984 19.5316 9.91727 19.5316C9.90623 19.5316 9.89462 19.5314 9.88259 19.5307C9.68941 19.5206 9.51116 19.4272 9.39108 19.2763L5.5219 14.4129C4.07407 12.593 3.02144 10.5244 2.3935 8.26563C1.76552 6.007 1.59609 3.68007 1.88994 1.35068ZM1.88994 1.35068L2.1378 1.38193L1.88994 1.35066C1.88994 1.35067 1.88994 1.35067 1.88994 1.35068ZM17.31 21.2234L17.1395 21.3895L17.31 21.2235C17.7193 21.6438 18.2609 21.8735 18.8369 21.8735C19.4128 21.8735 19.9544 21.6438 20.3637 21.2235L20.3638 21.2234L20.6206 20.9598L14.7146 14.8956L12.9309 16.7271L17.31 21.2234ZM6.57423 13.5471L9.96813 17.8131L13.7621 13.9175L3.11587 2.9859C2.98599 6.79605 4.21203 10.5779 6.57423 13.5471Z"
		fill="white" stroke="white" stroke-width="0" />
</svg>
