<svg width="131" height="26" viewBox="0 0 131 26" fill="none" xmlns="http://www.w3.org/2000/svg">
<g clip-path="url(#clip0_61_218)">
<path d="M0.343079 25.2353V0.458836H5.48951V10.92L10.0433 0.458836H15.0338L10.2928 11.593L15.3769 25.2353H10.1993L6.30046 14.1318L5.48951 15.5388V25.2353H0.343079ZM17.615 25.2353V0.458836H22.7303V25.2353H17.615ZM26.5991 25.2353V0.458836H30.1861L35.8003 13.3671V0.458836H40.0422V25.2353H36.6113L30.997 11.5318V25.2353H26.5991ZM50.9187 25.5718C49.0681 25.5718 47.6021 25.2455 46.5208 24.593C45.4395 23.9404 44.6598 23.0125 44.1815 21.8094C43.724 20.5859 43.4953 19.1278 43.4953 17.4353V8.19766C43.4953 6.50511 43.724 5.05727 44.1815 3.85413C44.6598 2.651 45.4395 1.73335 46.5208 1.10119C47.6021 0.469032 49.0681 0.152954 50.9187 0.152954C52.7901 0.152954 54.2664 0.479229 55.3477 1.13178C56.4498 1.76394 57.2295 2.68159 57.687 3.88472C58.1652 5.06747 58.4044 6.50511 58.4044 8.19766V17.4353C58.4044 19.1278 58.1652 20.5859 57.687 21.8094C57.2295 23.0125 56.4498 23.9404 55.3477 24.593C54.2664 25.2455 52.7901 25.5718 50.9187 25.5718ZM50.9187 21.9318C51.584 21.9318 52.0727 21.789 52.3846 21.5035C52.6965 21.1977 52.9045 20.8 53.0084 20.3106C53.1124 19.8008 53.1644 19.2604 53.1644 18.6894V6.97413C53.1644 6.40315 53.1124 5.87296 53.0084 5.38354C52.9045 4.89413 52.6965 4.50668 52.3846 4.22119C52.0727 3.91531 51.584 3.76237 50.9187 3.76237C50.2949 3.76237 49.827 3.91531 49.5151 4.22119C49.2032 4.50668 48.9952 4.89413 48.8913 5.38354C48.7874 5.87296 48.7353 6.40315 48.7353 6.97413V18.6894C48.7353 19.2604 48.7769 19.8008 48.8601 20.3106C48.964 20.8 49.172 21.1977 49.4839 21.5035C49.7958 21.789 50.274 21.9318 50.9187 21.9318Z" fill="white"/>
<path d="M61.7472 25.2353L62.1839 0.458836H67.6422L70.7612 16.0894L74.0986 0.458836H79.3697L79.8063 25.2353H76.0636L75.6581 8.44237L72.4455 25.2353H69.2329L65.8643 8.32001L65.5212 25.2353H61.7472ZM90.5772 25.5718C88.726 25.5718 87.2601 25.2455 86.1793 24.593C85.0978 23.9404 84.318 23.0125 83.84 21.8094C83.3823 20.5859 83.1538 19.1278 83.1538 17.4353V8.19766C83.1538 6.50511 83.3823 5.05727 83.84 3.85413C84.318 2.651 85.0978 1.73335 86.1793 1.10119C87.2601 0.469032 88.726 0.152954 90.5772 0.152954C92.4486 0.152954 93.9247 0.479229 95.0062 1.13178C96.108 1.76394 96.8878 2.68159 97.3455 3.88472C97.8235 5.06747 98.0629 6.50511 98.0629 8.19766V17.4353C98.0629 19.1278 97.8235 20.5859 97.3455 21.8094C96.8878 23.0125 96.108 23.9404 95.0062 24.593C93.9247 25.2455 92.4486 25.5718 90.5772 25.5718ZM90.5772 21.9318C91.2423 21.9318 91.7312 21.789 92.0431 21.5035C92.355 21.1977 92.5624 20.8 92.6669 20.3106C92.7706 19.8008 92.8229 19.2604 92.8229 18.6894V6.97413C92.8229 6.40315 92.7706 5.87296 92.6669 5.38354C92.5624 4.89413 92.355 4.50668 92.0431 4.22119C91.7312 3.91531 91.2423 3.76237 90.5772 3.76237C89.9534 3.76237 89.4855 3.91531 89.1736 4.22119C88.8617 4.50668 88.6535 4.89413 88.5498 5.38354C88.4453 5.87296 88.3938 6.40315 88.3938 6.97413V18.6894C88.3938 19.2604 88.4352 19.8008 88.5186 20.3106C88.6223 20.8 88.8305 21.1977 89.1424 21.5035C89.4543 21.789 89.9323 21.9318 90.5772 21.9318ZM101.499 25.2353V0.458836H108.049C109.754 0.458836 111.21 0.652562 112.416 1.04001C113.643 1.40707 114.578 2.06981 115.223 3.02825C115.888 3.98668 116.221 5.31217 116.221 7.00472C116.221 8.0243 116.128 8.93178 115.94 9.72707C115.774 10.502 115.462 11.1851 115.005 11.7765C114.568 12.3475 113.944 12.8063 113.133 13.153L116.627 25.2353H111.355L108.455 14.0094H106.646V25.2353H101.499ZM106.646 11.0118H108.143C108.974 11.0118 109.629 10.8793 110.108 10.6141C110.586 10.349 110.919 9.95136 111.106 9.42119C111.313 8.8706 111.418 8.19766 111.418 7.40237C111.418 6.26041 111.2 5.39374 110.763 4.80237C110.346 4.1906 109.557 3.88472 108.392 3.88472H106.646V11.0118ZM119.683 25.2353V0.458836H130.694V3.9459H124.83V10.5224H129.352V14.04H124.83V21.8094H130.756V25.2353H119.683Z" fill="#2253B2"/>
</g>
<defs>
<clipPath id="clip0_61_218">
<rect width="131" height="26" fill="white"/>
</clipPath>
</defs>
</svg>
