<svg width="0" height="0"><symbol xmlns="http://www.w3.org/2000/svg" id="bookmark" fill="inherit" viewBox="0 0 24 24"><path fill-rule="evenodd" stroke="#fff" stroke-linecap="round" stroke-linejoin="round" stroke-width="1.7" d="M19.939 6.004c0-2.822-1.93-3.953-4.707-3.953H8.71C6.018 2.051 4 3.105 4 5.816v15.102a.974.974 0 0 0 1.45.85l6.546-3.672 6.49 3.666a.974.974 0 0 0 1.453-.849V6.003Z" clip-rule="evenodd"/></symbol><symbol xmlns="http://www.w3.org/2000/svg" id="burger" fill="none" viewBox="0 0 20 20"><rect width="20" height="1.5" y="2.75" fill="#fff" rx="1"/><rect width="20" height="1.5" y="9.25" fill="#fff" rx="1"/><rect width="20" height="1.5" y="15.75" fill="#fff" rx="1"/></symbol><symbol xmlns="http://www.w3.org/2000/svg" id="check" fill="none" viewBox="0 0 24 24"><path fill="#fff" fill-rule="evenodd" d="M18.03 7.97a.75.75 0 0 1 0 1.06l-7 7a.75.75 0 0 1-1.06 0l-4-4a.75.75 0 1 1 1.06-1.06l3.47 3.47 6.47-6.47a.75.75 0 0 1 1.06 0Z" clip-rule="evenodd"/></symbol><symbol xmlns="http://www.w3.org/2000/svg" id="chevron" fill="inherit" viewBox="0 0 24 24"><path d="M15.125 21.1 6.7 12.7a.871.871 0 0 1-.212-.325A1.098 1.098 0 0 1 6.425 12a1.1 1.1 0 0 1 .063-.375.872.872 0 0 1 .212-.325l8.425-8.425c.233-.233.525-.35.875-.35s.65.125.9.375.375.542.375.875a1.2 1.2 0 0 1-.375.875L9.55 12l7.35 7.35c.233.233.35.52.35.862 0 .342-.125.638-.375.888a1.2 1.2 0 0 1-.875.375 1.2 1.2 0 0 1-.875-.375Z"/></symbol><symbol xmlns="http://www.w3.org/2000/svg" id="close" fill="inherit" viewBox="0 0 44 44"><path d="M43.064 40.183 2.88 0-.614 3.494 39.57 43.678l3.494-3.495Z"/><path d="M40.443 0 .26 40.184l3.494 3.494L43.937 3.494 40.443 0Z"/></symbol><symbol xmlns="http://www.w3.org/2000/svg" id="edit" fill="none" viewBox="0 0 24 24"><path stroke="#fff" stroke-linecap="round" stroke-linejoin="round" stroke-miterlimit="10" stroke-width="2" d="m13.26 3.6-8.21 8.69c-.31.33-.61.98-.67 1.43l-.37 3.24c-.13 1.17.71 1.97 1.87 1.77l3.22-.55c.45-.08 1.08-.41 1.39-.75l8.21-8.69c1.42-1.5 2.06-3.21-.15-5.3-2.2-2.07-3.87-1.34-5.29.16Z"/><path stroke="#fff" stroke-linecap="round" stroke-linejoin="round" stroke-miterlimit="10" stroke-width="2" d="M11.89 5.05a6.126 6.126 0 0 0 5.45 5.15M3 22h18"/></symbol><symbol xmlns="http://www.w3.org/2000/svg" id="filters" fill="none" viewBox="0 0 24 24"><path stroke="#fff" stroke-linecap="round" stroke-linejoin="round" stroke-miterlimit="10" stroke-width="1.5" d="M22 6.5h-6m-10 0H2m8 3.5a3.5 3.5 0 1 0 0-7 3.5 3.5 0 0 0 0 7Zm12 7.5h-4m-10 0H2M14 21a3.5 3.5 0 1 0 0-7 3.5 3.5 0 0 0 0 7Z"/></symbol><symbol xmlns="http://www.w3.org/2000/svg" id="link" fill="none" viewBox="0 0 24 24"><path stroke="#fff" stroke-linecap="round" stroke-linejoin="round" stroke-width="1.5" d="M14.99 17.5h1.51c3.02 0 5.5-2.47 5.5-5.5 0-3.02-2.47-5.5-5.5-5.5h-1.51M9 6.5H7.5A5.51 5.51 0 0 0 2 12c0 3.02 2.47 5.5 5.5 5.5H9M8 12h8"/></symbol><symbol xmlns="http://www.w3.org/2000/svg" id="play" fill="none" viewBox="0 0 24 24"><path stroke="#fff" stroke-linecap="round" stroke-linejoin="round" stroke-miterlimit="10" stroke-width="1.7" d="M4 12V8.44c0-4.42 3.13-6.23 6.96-4.02l3.09 1.78 3.09 1.78c3.83 2.21 3.83 5.83 0 8.04l-3.09 1.78-3.09 1.78C7.13 21.79 4 19.98 4 15.56V12Z"/></symbol><symbol xmlns="http://www.w3.org/2000/svg" id="profile" fill="none" viewBox="0 0 24 24"><path stroke="#fff" stroke-linecap="round" stroke-linejoin="round" stroke-width="1.5" d="M12.12 12.78a.963.963 0 0 0-.24 0 3.27 3.27 0 0 1-3.16-3.27c0-1.81 1.46-3.28 3.28-3.28a3.276 3.276 0 0 1 .12 6.55Zm6.62 6.6A9.934 9.934 0 0 1 12 22c-2.6 0-4.96-.99-6.74-2.62.1-.94.7-1.86 1.77-2.58 2.74-1.82 7.22-1.82 9.94 0 1.07.72 1.67 1.64 1.77 2.58Z"/><path stroke="#fff" stroke-linecap="round" stroke-linejoin="round" stroke-width="1.5" d="M12 22c5.523 0 10-4.477 10-10S17.523 2 12 2 2 6.477 2 12s4.477 10 10 10Z"/></symbol><symbol xmlns="http://www.w3.org/2000/svg" id="search" fill="none" viewBox="0 0 24 24"><path stroke="#fff" stroke-linecap="round" stroke-linejoin="round" stroke-width="1.5" d="M10 18a8 8 0 1 0 0-16 8 8 0 0 0 0 16Zm12 4-6-6"/></symbol><symbol xmlns="http://www.w3.org/2000/svg" id="share" fill="none" viewBox="0 0 24 24"><path stroke="#fff" stroke-linecap="round" stroke-linejoin="round" stroke-width="1.7" d="m9 13.5 6 3m0-9-6 3M18 21a3 3 0 1 1 0-6 3 3 0 0 1 0 6ZM6 15a3 3 0 1 1 0-6 3 3 0 0 1 0 6Zm12-6a3 3 0 1 1 0-6 3 3 0 0 1 0 6Z"/></symbol><symbol xmlns="http://www.w3.org/2000/svg" id="sort" fill="none" viewBox="0 0 24 24"><path stroke="#fff" stroke-linecap="round" stroke-width="1.5" d="M3 6h18M3 12h12M3 18h8"/></symbol><symbol xmlns="http://www.w3.org/2000/svg" id="star" fill="none" viewBox="0 0 24 24"><path stroke="#fff" stroke-linecap="round" stroke-linejoin="round" stroke-width="1.7" d="m13.73 3.51 1.76 3.52c.24.49.88.96 1.42 1.05l3.19.53c2.04.34 2.52 1.82 1.05 3.28l-2.48 2.48c-.42.42-.65 1.23-.52 1.81l.71 3.07c.56 2.43-.73 3.37-2.88 2.1l-2.99-1.77c-.54-.32-1.43-.32-1.98 0l-2.99 1.77c-2.14 1.27-3.44.32-2.88-2.1l.71-3.07c.13-.58-.1-1.39-.52-1.81l-2.48-2.48c-1.46-1.46-.99-2.94 1.05-3.28l3.19-.53c.53-.09 1.17-.56 1.41-1.05l1.76-3.52c.96-1.91 2.52-1.91 3.47 0Z"/></symbol><symbol xmlns="http://www.w3.org/2000/svg" id="volume-high" fill="none" viewBox="0 0 24 24"><path stroke="#fff" stroke-width="1.5" d="M2 10v4c0 2 1 3 3 3h1.43c.37 0 .74.11 1.06.3l2.92 1.83c2.52 1.58 4.59.43 4.59-2.54V7.41c0-2.98-2.07-4.12-4.59-2.54L7.49 6.7c-.32.19-.69.3-1.06.3H5c-2 0-3 1-3 3Z"/><path stroke="#fff" stroke-linecap="round" stroke-linejoin="round" stroke-width="1.5" d="M18 8a6.66 6.66 0 0 1 0 8m1.83-10.5a10.83 10.83 0 0 1 0 13"/></symbol><symbol xmlns="http://www.w3.org/2000/svg" id="volume-slash" fill="none" viewBox="0 0 24 24"><path stroke="#fff" stroke-linecap="round" stroke-linejoin="round" stroke-width="1.5" d="M15 8.37v-.96c0-2.98-2.07-4.12-4.59-2.54L7.49 6.7c-.32.19-.69.3-1.06.3H5c-2 0-3 1-3 3v4c0 2 1 3 3 3h2m3.41 2.13c2.52 1.58 4.59.43 4.59-2.54v-3.64m3.81-3.53c.9 2.15.63 4.66-.81 6.58m3.15-8.2a10.82 10.82 0 0 1-1.32 10.7M22 2 2 22"/></symbol></svg>