<svg width="0" height="0"><symbol xmlns="http://www.w3.org/2000/svg" id="bookmark-slash" fill="none" viewBox="0 0 24 24"><path fill="#fff" fill-rule="evenodd" d="M15.924 4.418a23.778 23.778 0 0 0-7.848 0 1.194 1.194 0 0 0-.973.94 35.64 35.64 0 0 0-.142 13.327l.163.913 3.67-3.487a1.75 1.75 0 0 1 2.411 0l3.67 3.487.164-.913a35.64 35.64 0 0 0-.142-13.327 1.194 1.194 0 0 0-.973-.94ZM7.828 2.94a25.278 25.278 0 0 1 8.344 0 2.694 2.694 0 0 1 2.195 2.123c.923 4.579.973 9.29.149 13.888l-.222 1.235a1.323 1.323 0 0 1-2.213.726l-3.909-3.713a.25.25 0 0 0-.344 0l-3.909 3.713a1.323 1.323 0 0 1-2.213-.726l-.222-1.235a37.14 37.14 0 0 1 .148-13.888A2.694 2.694 0 0 1 7.828 2.94Z" clip-rule="evenodd"/><path fill="#fff" d="M3 19.264 19.264 3l1.06 1.061L4.061 20.325z"/></symbol><symbol xmlns="http://www.w3.org/2000/svg" id="bookmark" fill="inherit" viewBox="0 0 24 24"><path fill-rule="evenodd" stroke="#fff" stroke-linecap="round" stroke-linejoin="round" stroke-width="1.7" d="M19.939 6.004c0-2.822-1.93-3.953-4.707-3.953H8.71C6.018 2.051 4 3.105 4 5.816v15.102a.974.974 0 0 0 1.45.85l6.546-3.672 6.49 3.666a.974.974 0 0 0 1.453-.849V6.003Z" clip-rule="evenodd"/></symbol><symbol xmlns="http://www.w3.org/2000/svg" id="bookmark2" fill="none" viewBox="0 0 24 24"><path fill="#fff" fill-rule="evenodd" d="M15.924 4.418a23.778 23.778 0 0 0-7.848 0 1.194 1.194 0 0 0-.973.94 35.64 35.64 0 0 0-.142 13.327l.163.913 3.67-3.487a1.75 1.75 0 0 1 2.411 0l3.67 3.487.164-.913a35.64 35.64 0 0 0-.142-13.327 1.194 1.194 0 0 0-.973-.94ZM7.828 2.94a25.278 25.278 0 0 1 8.344 0 2.694 2.694 0 0 1 2.195 2.123c.923 4.579.973 9.29.149 13.888l-.222 1.235a1.323 1.323 0 0 1-2.213.726l-3.909-3.713a.25.25 0 0 0-.344 0l-3.909 3.713a1.323 1.323 0 0 1-2.213-.726l-.222-1.235a37.14 37.14 0 0 1 .148-13.888A2.694 2.694 0 0 1 7.828 2.94Z" clip-rule="evenodd"/></symbol><symbol xmlns="http://www.w3.org/2000/svg" id="burger" fill="none" viewBox="0 0 20 20"><rect width="20" height="1.5" y="2.75" fill="#fff" rx="1"/><rect width="20" height="1.5" y="9.25" fill="#fff" rx="1"/><rect width="20" height="1.5" y="15.75" fill="#fff" rx="1"/></symbol><symbol xmlns="http://www.w3.org/2000/svg" id="check" fill="none" viewBox="0 0 24 24"><path fill="#fff" fill-rule="evenodd" d="M18.03 7.97a.75.75 0 0 1 0 1.06l-7 7a.75.75 0 0 1-1.06 0l-4-4a.75.75 0 1 1 1.06-1.06l3.47 3.47 6.47-6.47a.75.75 0 0 1 1.06 0Z" clip-rule="evenodd"/></symbol><symbol xmlns="http://www.w3.org/2000/svg" id="chevron" fill="inherit" viewBox="0 0 24 24"><path d="M15.125 21.1 6.7 12.7a.871.871 0 0 1-.212-.325A1.098 1.098 0 0 1 6.425 12a1.1 1.1 0 0 1 .063-.375.872.872 0 0 1 .212-.325l8.425-8.425c.233-.233.525-.35.875-.35s.65.125.9.375.375.542.375.875a1.2 1.2 0 0 1-.375.875L9.55 12l7.35 7.35c.233.233.35.52.35.862 0 .342-.125.638-.375.888a1.2 1.2 0 0 1-.875.375 1.2 1.2 0 0 1-.875-.375Z"/></symbol><symbol xmlns="http://www.w3.org/2000/svg" id="close" fill="inherit" viewBox="0 0 44 44"><path d="M43.064 40.183 2.88 0-.614 3.494 39.57 43.678l3.494-3.495Z"/><path d="M40.443 0 .26 40.184l3.494 3.494L43.937 3.494 40.443 0Z"/></symbol><symbol xmlns="http://www.w3.org/2000/svg" id="edit" fill="none" viewBox="0 0 24 24"><path stroke="#fff" stroke-linecap="round" stroke-linejoin="round" stroke-miterlimit="10" stroke-width="2" d="m13.26 3.6-8.21 8.69c-.31.33-.61.98-.67 1.43l-.37 3.24c-.13 1.17.71 1.97 1.87 1.77l3.22-.55c.45-.08 1.08-.41 1.39-.75l8.21-8.69c1.42-1.5 2.06-3.21-.15-5.3-2.2-2.07-3.87-1.34-5.29.16Z"/><path stroke="#fff" stroke-linecap="round" stroke-linejoin="round" stroke-miterlimit="10" stroke-width="2" d="M11.89 5.05a6.126 6.126 0 0 0 5.45 5.15M3 22h18"/></symbol><symbol xmlns="http://www.w3.org/2000/svg" id="eye-closed" fill="none" viewBox="0 0 24 24"><path fill="currentColor" fill-rule="evenodd" d="M20.53 4.53a.75.75 0 0 0-1.06-1.06l-16 16a.75.75 0 1 0 1.06 1.06l2.847-2.847c1.367.644 2.94 1.067 4.623 1.067 2.684 0 5.09-1.077 6.82-2.405.867-.665 1.583-1.407 2.089-2.136.492-.709.841-1.486.841-2.209 0-.723-.35-1.5-.841-2.209-.506-.729-1.222-1.47-2.088-2.136-.263-.201-.54-.397-.832-.583L20.53 4.53ZM16.9 8.161l-1.771 1.771a3.75 3.75 0 0 1-5.197 5.197l-1.417 1.416A9.25 9.25 0 0 0 12 17.25c2.287 0 4.38-.923 5.907-2.095.762-.585 1.364-1.218 1.77-1.801.419-.604.573-1.077.573-1.354 0-.277-.154-.75-.573-1.354-.406-.583-1.008-1.216-1.77-1.801-.313-.24-.65-.47-1.008-.684Zm-5.87 5.87a2.25 2.25 0 0 0 3-3l-3 3Z" clip-rule="evenodd"/><path fill="currentColor" d="M12 5.25c1.032 0 2.024.16 2.951.431a.243.243 0 0 1 .1.407l-.824.825a.254.254 0 0 1-.237.067A8.872 8.872 0 0 0 12 6.75c-2.287 0-4.38.923-5.907 2.095-.762.585-1.364 1.218-1.77 1.801-.419.604-.573 1.077-.573 1.354 0 .277.154.75.573 1.354.354.51.858 1.057 1.488 1.577.116.095.127.27.02.377l-.708.709a.246.246 0 0 1-.333.016 9.52 9.52 0 0 1-1.699-1.824C2.6 13.5 2.25 12.723 2.25 12c0-.723.35-1.5.841-2.209.506-.729 1.222-1.47 2.088-2.136C6.91 6.327 9.316 5.25 12 5.25Z"/><path fill="currentColor" d="M12 8.25c.118 0 .236.005.351.016.197.019.268.254.129.394l-1.213 1.212a2.256 2.256 0 0 0-1.395 1.395L8.66 12.48c-.14.14-.375.068-.394-.129A3.75 3.75 0 0 1 12 8.25Z"/></symbol><symbol xmlns="http://www.w3.org/2000/svg" id="eye" fill="none" viewBox="0 0 24 24"><path fill="currentColor" fill-rule="evenodd" d="M8.25 12a3.75 3.75 0 1 1 7.5 0 3.75 3.75 0 0 1-7.5 0ZM12 9.75a2.25 2.25 0 1 0 0 4.5 2.25 2.25 0 0 0 0-4.5Z" clip-rule="evenodd"/><path fill="currentColor" fill-rule="evenodd" d="M4.323 10.646c-.419.604-.573 1.077-.573 1.354 0 .277.154.75.573 1.354.406.583 1.008 1.216 1.77 1.801C7.62 16.327 9.713 17.25 12 17.25s4.38-.923 5.907-2.095c.762-.585 1.364-1.218 1.77-1.801.419-.604.573-1.077.573-1.354 0-.277-.154-.75-.573-1.354-.406-.583-1.008-1.216-1.77-1.801C16.38 7.673 14.287 6.75 12 6.75s-4.38.923-5.907 2.095c-.762.585-1.364 1.218-1.77 1.801Zm.856-2.991C6.91 6.327 9.316 5.25 12 5.25s5.09 1.077 6.82 2.405c.867.665 1.583 1.407 2.089 2.136.492.709.841 1.486.841 2.209 0 .723-.35 1.5-.841 2.209-.506.729-1.222 1.47-2.088 2.136-1.73 1.328-4.137 2.405-6.821 2.405s-5.09-1.077-6.82-2.405c-.867-.665-1.583-1.407-2.089-2.136C2.6 13.5 2.25 12.723 2.25 12c0-.723.35-1.5.841-2.209.506-.729 1.222-1.47 2.088-2.136Z" clip-rule="evenodd"/></symbol><symbol xmlns="http://www.w3.org/2000/svg" id="filters" fill="none" viewBox="0 0 24 24"><path stroke="#fff" stroke-linecap="round" stroke-linejoin="round" stroke-miterlimit="10" stroke-width="1.5" d="M22 6.5h-6m-10 0H2m8 3.5a3.5 3.5 0 1 0 0-7 3.5 3.5 0 0 0 0 7Zm12 7.5h-4m-10 0H2M14 21a3.5 3.5 0 1 0 0-7 3.5 3.5 0 0 0 0 7Z"/></symbol><symbol xmlns="http://www.w3.org/2000/svg" id="google" fill="none" viewBox="0 0 12 12"><rect width="12" height="12" fill="#fff" rx="6"/><g clip-path="url(#a)"><path fill="#FFC107" d="M10.412 5.119h-.362V5.1H6v1.8h2.543A2.699 2.699 0 1 1 6 3.3c.688 0 1.314.26 1.791.684L9.064 2.71A4.48 4.48 0 0 0 6 1.5a4.5 4.5 0 1 0 4.412 3.619Z"/><path fill="#FF3D00" d="M2.019 3.905 3.497 4.99A2.7 2.7 0 0 1 6 3.3c.688 0 1.314.26 1.791.684L9.064 2.71A4.48 4.48 0 0 0 6 1.5a4.497 4.497 0 0 0-3.981 2.405Z"/><path fill="#4CAF50" d="M6 10.5a4.479 4.479 0 0 0 3.017-1.168L7.624 8.153A2.68 2.68 0 0 1 6 8.7a2.699 2.699 0 0 1-2.539-1.788l-1.467 1.13A4.496 4.496 0 0 0 6 10.5Z"/><path fill="#1976D2" d="M10.412 5.119h-.362V5.1H6v1.8h2.543a2.709 2.709 0 0 1-.92 1.253h.001l1.393 1.179C8.918 9.422 10.5 8.25 10.5 6c0-.302-.031-.596-.088-.881Z"/></g><defs><clipPath id="a"><path fill="#fff" d="M1.5 1.5h9v9h-9z"/></clipPath></defs></symbol><symbol xmlns="http://www.w3.org/2000/svg" id="history" fill="none" viewBox="0 0 24 24"><path fill="#fff" d="M6.865 6.882A7.25 7.25 0 1 1 4.75 12a.75.75 0 0 0-1.5 0 8.75 8.75 0 1 0 2.552-6.176.756.756 0 0 0-.07.08L4.475 4.646a.5.5 0 0 0-.852.309L3.27 8.844a.5.5 0 0 0 .543.543l3.89-.354a.5.5 0 0 0 .307-.851L6.782 6.954a.757.757 0 0 0 .083-.072Z"/><path fill="#fff" d="M12.75 7a.75.75 0 0 0-1.5 0v5a.75.75 0 0 0 .352.636l3 1.875a.75.75 0 1 0 .796-1.272l-2.648-1.655V7Z"/></symbol><symbol xmlns="http://www.w3.org/2000/svg" id="link" fill="none" viewBox="0 0 24 24"><path stroke="#fff" stroke-linecap="round" stroke-linejoin="round" stroke-width="1.5" d="M14.99 17.5h1.51c3.02 0 5.5-2.47 5.5-5.5 0-3.02-2.47-5.5-5.5-5.5h-1.51M9 6.5H7.5A5.51 5.51 0 0 0 2 12c0 3.02 2.47 5.5 5.5 5.5H9M8 12h8"/></symbol><symbol xmlns="http://www.w3.org/2000/svg" id="play" fill="none" viewBox="0 0 24 24"><path stroke="#fff" stroke-linecap="round" stroke-linejoin="round" stroke-miterlimit="10" stroke-width="1.7" d="M4 12V8.44c0-4.42 3.13-6.23 6.96-4.02l3.09 1.78 3.09 1.78c3.83 2.21 3.83 5.83 0 8.04l-3.09 1.78-3.09 1.78C7.13 21.79 4 19.98 4 15.56V12Z"/></symbol><symbol xmlns="http://www.w3.org/2000/svg" id="profile" fill="none" viewBox="0 0 24 24"><path stroke="#fff" stroke-linecap="round" stroke-linejoin="round" stroke-width="1.5" d="M12.12 12.78a.963.963 0 0 0-.24 0 3.27 3.27 0 0 1-3.16-3.27c0-1.81 1.46-3.28 3.28-3.28a3.276 3.276 0 0 1 .12 6.55Zm6.62 6.6A9.934 9.934 0 0 1 12 22c-2.6 0-4.96-.99-6.74-2.62.1-.94.7-1.86 1.77-2.58 2.74-1.82 7.22-1.82 9.94 0 1.07.72 1.67 1.64 1.77 2.58Z"/><path stroke="#fff" stroke-linecap="round" stroke-linejoin="round" stroke-width="1.5" d="M12 22c5.523 0 10-4.477 10-10S17.523 2 12 2 2 6.477 2 12s4.477 10 10 10Z"/></symbol><symbol xmlns="http://www.w3.org/2000/svg" id="search" fill="none" viewBox="0 0 24 24"><path stroke="#fff" stroke-linecap="round" stroke-linejoin="round" stroke-width="1.5" d="M10 18a8 8 0 1 0 0-16 8 8 0 0 0 0 16Zm12 4-6-6"/></symbol><symbol xmlns="http://www.w3.org/2000/svg" id="settings" fill="none" viewBox="0 0 24 24"><path stroke="#fff" stroke-linecap="round" stroke-linejoin="round" stroke-miterlimit="10" stroke-width="1.5" d="M12 14.75a2.75 2.75 0 1 0 0-5.5 2.75 2.75 0 0 0 0 5.5Z"/><path stroke="#fff" stroke-linecap="round" stroke-linejoin="round" stroke-miterlimit="10" stroke-width="1.5" d="M2.833 12.807v-1.614c0-.953.78-1.741 1.742-1.741 1.66 0 2.338-1.174 1.503-2.613a1.74 1.74 0 0 1 .642-2.374l1.586-.908c.724-.43 1.659-.174 2.09.55l.1.175c.826 1.439 2.182 1.439 3.016 0l.101-.175c.431-.724 1.366-.98 2.09-.55l1.586.908a1.74 1.74 0 0 1 .642 2.374c-.834 1.44-.156 2.613 1.503 2.613.953 0 1.742.779 1.742 1.741v1.614c0 .953-.78 1.741-1.742 1.741-1.659 0-2.337 1.174-1.503 2.613a1.739 1.739 0 0 1-.642 2.374l-1.586.907c-.724.431-1.659.175-2.09-.55l-.1-.174c-.825-1.439-2.182-1.439-3.016 0l-.101.174c-.431.725-1.366.981-2.09.55l-1.586-.907a1.74 1.74 0 0 1-.642-2.374c.835-1.44.156-2.613-1.503-2.613a1.747 1.747 0 0 1-1.742-1.741Z"/></symbol><symbol xmlns="http://www.w3.org/2000/svg" id="share" fill="none" viewBox="0 0 24 24"><path stroke="#fff" stroke-linecap="round" stroke-linejoin="round" stroke-width="1.7" d="m9 13.5 6 3m0-9-6 3M18 21a3 3 0 1 1 0-6 3 3 0 0 1 0 6ZM6 15a3 3 0 1 1 0-6 3 3 0 0 1 0 6Zm12-6a3 3 0 1 1 0-6 3 3 0 0 1 0 6Z"/></symbol><symbol xmlns="http://www.w3.org/2000/svg" id="sort" fill="none" viewBox="0 0 24 24"><path stroke="#fff" stroke-linecap="round" stroke-width="1.5" d="M3 6h18M3 12h12M3 18h8"/></symbol><symbol xmlns="http://www.w3.org/2000/svg" id="star" fill="none" viewBox="0 0 24 24"><path stroke="#fff" stroke-linecap="round" stroke-linejoin="round" stroke-width="1.7" d="m13.73 3.51 1.76 3.52c.24.49.88.96 1.42 1.05l3.19.53c2.04.34 2.52 1.82 1.05 3.28l-2.48 2.48c-.42.42-.65 1.23-.52 1.81l.71 3.07c.56 2.43-.73 3.37-2.88 2.1l-2.99-1.77c-.54-.32-1.43-.32-1.98 0l-2.99 1.77c-2.14 1.27-3.44.32-2.88-2.1l.71-3.07c.13-.58-.1-1.39-.52-1.81l-2.48-2.48c-1.46-1.46-.99-2.94 1.05-3.28l3.19-.53c.53-.09 1.17-.56 1.41-1.05l1.76-3.52c.96-1.91 2.52-1.91 3.47 0Z"/></symbol></svg>