<svg width="0" height="0"><symbol xmlns="http://www.w3.org/2000/svg" id="cup" fill="none" viewBox="0 0 24 24"><path stroke="#fff" stroke-linecap="round" stroke-linejoin="round" stroke-width="1.5" d="M12.15 16.5v2.1"/><path stroke="#fff" stroke-miterlimit="10" stroke-width="1.5" d="M7.15 22h10v-1c0-1.1-.9-2-2-2h-6c-1.1 0-2 .9-2 2v1Z"/><path stroke="#fff" stroke-linecap="round" stroke-linejoin="round" stroke-width="1.5" d="M6.15 22h12M12 16c-3.87 0-7-3.13-7-7V6c0-2.21 1.79-4 4-4h6c2.21 0 4 1.79 4 4v3c0 3.87-3.13 7-7 7Z"/><path stroke="#fff" stroke-linecap="round" stroke-linejoin="round" stroke-width="1.5" d="M5.47 11.65c-.75-.24-1.41-.68-1.93-1.2-.9-1-1.5-2.2-1.5-3.6s1.1-2.5 2.5-2.5h.65c-.2.46-.3.97-.3 1.5v3c0 1 .21 1.94.58 2.8Zm13.06 0c.75-.24 1.41-.68 1.93-1.2.9-1 1.5-2.2 1.5-3.6s-1.1-2.5-2.5-2.5h-.65c.2.46.3.97.3 1.5v3c0 1-.21 1.94-.58 2.8Z"/></symbol><symbol xmlns="http://www.w3.org/2000/svg" id="fire" fill="none" viewBox="0 0 24 24"><path fill="#fff" fill-rule="evenodd" d="M10.507 1.508a.75.75 0 0 1 .734-.239c3.608.829 5.433 4.783 5.003 8.321-.166 1.376-.578 2.454-1.185 3.312l-.011.016c.138-.068.265-.141.384-.218.592-.385 1.026-.892 1.592-1.552l.211-.246a.75.75 0 0 1 1.238.151A7.25 7.25 0 1 1 8.024 8.26l.067-.068a.75.75 0 0 1 .114-.094c.865-.583 1.487-1.06 1.906-1.62.395-.529.638-1.175.638-2.154a5.73 5.73 0 0 0-.378-2.055.75.75 0 0 1 .135-.76Zm1.664 1.743c.052.35.079.708.079 1.072 0 1.268-.328 2.237-.937 3.052-.571.766-1.363 1.353-2.208 1.925l-.073.073a.75.75 0 0 1-.128.103 5.75 5.75 0 1 0 8.648 3.346c-.38.411-.8.809-1.303 1.136-.924.599-2.08.941-3.749.941a.75.75 0 0 1-.362-1.407c.679-.374 1.254-.831 1.697-1.456.44-.624.779-1.457.92-2.626.307-2.531-.74-5.029-2.584-6.16Z" clip-rule="evenodd"/></symbol><symbol xmlns="http://www.w3.org/2000/svg" id="happy" fill="none" viewBox="0 0 24 24"><path stroke="#fff" stroke-linecap="round" stroke-linejoin="round" stroke-width="1.5" d="M9 22h6c5 0 7-2 7-7V9c0-5-2-7-7-7H9C4 2 2 4 2 9v6c0 5 2 7 7 7Z"/><path stroke="#fff" stroke-linecap="round" stroke-linejoin="round" stroke-miterlimit="10" stroke-width="1.5" d="M15.5 9.75a1.5 1.5 0 1 0 0-3 1.5 1.5 0 0 0 0 3Zm-7 0a1.5 1.5 0 1 0 0-3 1.5 1.5 0 0 0 0 3Zm-.1 3.55h7.2c.5 0 .9.4.9.9 0 2.49-2.01 4.5-4.5 4.5s-4.5-2.01-4.5-4.5c0-.5.4-.9.9-.9Z"/></symbol><symbol xmlns="http://www.w3.org/2000/svg" id="hearts" fill="none" viewBox="0 0 24 24"><path stroke="#fff" stroke-linecap="round" stroke-linejoin="round" stroke-width="1.5" d="M19.86 8.09c0 .42-.03.83-.08 1.22a3.714 3.714 0 0 0-4.46 1.18A3.73 3.73 0 0 0 12.34 9c-2.05 0-3.71 1.67-3.71 3.74 0 2.68 1.42 4.73 3 6.12-.05.03-.1.04-.15.06-.3.11-.8.11-1.1 0C7.79 18.03 2 14.35 2 8.09 2 5.33 4.22 3.1 6.96 3.1c1.63 0 3.07.78 3.97 1.99A4.957 4.957 0 0 1 14.9 3.1c2.74 0 4.96 2.23 4.96 4.99Z"/><path stroke="#fff" stroke-linecap="round" stroke-linejoin="round" stroke-width="1.5" d="M22 12.74c0 4.68-4.33 7.44-6.27 8.1-.23.08-.6.08-.83 0-.83-.28-2.1-.95-3.27-1.98-1.58-1.39-3-3.44-3-6.12 0-2.07 1.66-3.74 3.71-3.74 1.22 0 2.3.59 2.98 1.49a3.714 3.714 0 0 1 4.46-1.18c1.31.58 2.22 1.89 2.22 3.43Z"/></symbol><symbol xmlns="http://www.w3.org/2000/svg" id="knife" fill="none" viewBox="0 0 24 24"><path fill="#fff" d="M1.89 1.35a.686.686 0 0 1 .45-.562.669.669 0 0 1 .701.167l12.154 12.48 6.858 7.041a.695.695 0 0 1 0 .969l-.728.748a3.453 3.453 0 0 1-4.978 0l-4.37-4.487-1.58 1.623a.671.671 0 0 1-1.007-.052l-3.87-4.863a17.23 17.23 0 0 1-3.127-6.147A17.505 17.505 0 0 1 1.89 1.35Zm0 0 .248.032-.248-.031Zm15.42 19.873-.17.167.17-.166a2.116 2.116 0 0 0 3.054 0l.257-.264-5.906-6.064-1.784 1.831 4.379 4.496ZM6.574 13.547l3.394 4.266 3.794-3.895L3.116 2.986c-.13 3.81 1.096 7.592 3.458 10.561Z"/></symbol><symbol xmlns="http://www.w3.org/2000/svg" id="map" fill="none" viewBox="0 0 24 24"><path stroke="#fff" stroke-linecap="round" stroke-linejoin="round" stroke-width="1.5" d="M2.29 7.78v9.73c0 1.9 1.35 2.68 2.99 1.74l2.35-1.34c.51-.29 1.36-.32 1.89-.05l5.25 2.63c.53.26 1.38.24 1.89-.05l4.33-2.48c.55-.32 1.01-1.1 1.01-1.74V6.49c0-1.9-1.35-2.68-2.99-1.74l-2.35 1.34c-.51.29-1.36.32-1.89.05L9.52 3.52c-.53-.26-1.38-.24-1.89.05L3.3 6.05c-.56.32-1.01 1.1-1.01 1.73ZM8.56 4v13m7.17-10.38V20"/></symbol><symbol xmlns="http://www.w3.org/2000/svg" id="music" fill="none" viewBox="0 0 24 24"><path fill="#fff" fill-rule="evenodd" d="M12 2.25a.75.75 0 0 0-.75.75v11.26a4.25 4.25 0 1 0 1.486 2.888.76.76 0 0 0 .014-.148V7.75H18a2.75 2.75 0 1 0 0-5.5h-6Zm.75 4H18a1.25 1.25 0 1 0 0-2.5h-5.25v2.5Zm-4.25 8.5a2.75 2.75 0 1 0 0 5.5 2.75 2.75 0 0 0 0-5.5Z" clip-rule="evenodd"/></symbol><symbol xmlns="http://www.w3.org/2000/svg" id="people" fill="none" viewBox="0 0 24 24"><path stroke="#fff" stroke-linecap="round" stroke-linejoin="round" stroke-width="1.5" d="M18 7.16a.605.605 0 0 0-.19 0 2.573 2.573 0 0 1-2.48-2.58c0-1.43 1.15-2.58 2.58-2.58a2.58 2.58 0 0 1 2.58 2.58A2.589 2.589 0 0 1 18 7.16Zm-1.03 7.28c1.37.23 2.88-.01 3.94-.72 1.41-.94 1.41-2.48 0-3.42-1.07-.71-2.6-.95-3.97-.71M5.97 7.16c.06-.01.13-.01.19 0a2.573 2.573 0 0 0 2.48-2.58C8.64 3.15 7.49 2 6.06 2a2.58 2.58 0 0 0-2.58 2.58c.01 1.4 1.11 2.53 2.49 2.58ZM7 14.44c-1.37.23-2.88-.01-3.94-.72-1.41-.94-1.41-2.48 0-3.42 1.07-.71 2.6-.95 3.97-.71M12 14.63a.605.605 0 0 0-.19 0 2.573 2.573 0 0 1-2.48-2.58c0-1.43 1.15-2.58 2.58-2.58a2.58 2.58 0 0 1 2.58 2.58c-.01 1.4-1.11 2.54-2.49 2.58Zm-2.91 3.15c-1.41.94-1.41 2.48 0 3.42 1.6 1.07 4.22 1.07 5.82 0 1.41-.94 1.41-2.48 0-3.42-1.59-1.06-4.22-1.06-5.82 0Z"/></symbol><symbol xmlns="http://www.w3.org/2000/svg" id="rocket" fill="none" stroke="currentColor" stroke-width="0" viewBox="0 0 15 15"><path fill="currentColor" fill-rule="evenodd" stroke="none" d="m6.854 3.854.8-.8c.644-.645 1.775-1.092 2.898-1.253a5.342 5.342 0 0 1 1.504-.02c.443.066.714.196.84.323.127.126.257.397.323.84.064.427.059.95-.02 1.504-.16 1.123-.608 2.254-1.253 2.898L7.5 11.793l-1.146-1.146a.5.5 0 1 0-.708.707l1.5 1.5a.5.5 0 0 0 .708 0l.547-.548 1.17 1.951a.5.5 0 0 0 .783.097l2-2a.5.5 0 0 0 .141-.425l-.465-3.252.624-.623c.855-.856 1.358-2.225 1.535-3.465.09-.627.1-1.25.019-1.794-.08-.528-.256-1.05-.604-1.399-.349-.348-.871-.525-1.4-.604a6.333 6.333 0 0 0-1.793.02C9.17.987 7.8 1.49 6.946 2.345l-.623.624-3.252-.465a.5.5 0 0 0-.425.141l-2 2a.5.5 0 0 0 .097.783l1.95 1.17-.547.547a.5.5 0 0 0 0 .708l1.5 1.5a.5.5 0 1 0 .708-.708L3.207 7.5l.647-.646 3-3Zm3.245 9.34-.97-1.617 2.017-2.016.324 2.262-1.37 1.37ZM3.423 5.87l2.016-2.016-2.262-.324-1.37 1.37 1.616.97Zm-1.07 4.484a.5.5 0 1 0-.707-.708l-1 1a.5.5 0 1 0 .708.707l1-1Zm1.5 1.5a.5.5 0 1 0-.707-.707l-2 2a.5.5 0 0 0 .708.707l2-2Zm1.5 1.5a.5.5 0 1 0-.707-.708l-1 1a.5.5 0 1 0 .708.707l1-1ZM9.5 6.748a1.249 1.249 0 1 0 0-2.498 1.249 1.249 0 0 0 0 2.498Z" clip-rule="evenodd"/></symbol><symbol xmlns="http://www.w3.org/2000/svg" id="tank" fill="none" viewBox="0 0 24 24"><path stroke="currentColor" stroke-linecap="round" stroke-linejoin="round" stroke-width="1.5" d="M18.464 11.933H4.857a3.402 3.402 0 1 0 0 6.804h13.607a3.402 3.402 0 0 0 0-6.804Zm-12.474 0 1.135-5.67h5.67l3.401 5.67M23 8.531h-8.844"/></symbol></svg>