<svg width="0" height="0"><symbol xmlns="http://www.w3.org/2000/svg" id="error" fill="none" viewBox="0 0 20 20"><path fill="#fff" d="M11 7a1 1 0 1 1-2 0 1 1 0 0 1 2 0Zm-1 2.75a.75.75 0 0 1 .75.75v5a.75.75 0 0 1-1.5 0v-5a.75.75 0 0 1 .75-.75Z"/><path fill="#fff" fill-rule="evenodd" d="M12.27 1.993a2.749 2.749 0 0 0-4.54 0l-.432.632A75.947 75.947 0 0 0 .354 15.188l-.09.207a2.511 2.511 0 0 0 2.024 3.498 69.412 69.412 0 0 0 15.424 0 2.511 2.511 0 0 0 2.024-3.498l-.09-.207a75.947 75.947 0 0 0-6.944-12.563l-.432-.632Zm-3.302.846a1.25 1.25 0 0 1 2.064 0l.432.632a74.45 74.45 0 0 1 6.806 12.315l.09.208a1.011 1.011 0 0 1-.814 1.408c-5.015.56-10.077.56-15.092 0a1.011 1.011 0 0 1-.815-1.408l.09-.208A74.447 74.447 0 0 1 8.536 3.471l.432-.632Z" clip-rule="evenodd"/></symbol><symbol xmlns="http://www.w3.org/2000/svg" id="info" fill="none" viewBox="0 0 18 18"><path fill="#fff" d="M9 7.75a.75.75 0 0 1 .75.75v5a.75.75 0 0 1-1.5 0v-5A.75.75 0 0 1 9 7.75ZM9 6a1 1 0 1 0 0-2 1 1 0 0 0 0 2Z"/><path fill="#fff" fill-rule="evenodd" d="M4.317.769a42.502 42.502 0 0 1 9.366 0c1.827.204 3.302 1.643 3.516 3.48.37 3.156.37 6.346 0 9.503-.215 1.836-1.69 3.275-3.516 3.48a42.511 42.511 0 0 1-9.366 0C2.49 17.026 1.015 15.588.8 13.751a40.902 40.902 0 0 1 0-9.504C1.015 2.412 2.49.973 4.317.768Zm9.2 1.49a41.001 41.001 0 0 0-9.034 0A2.486 2.486 0 0 0 2.29 4.423a39.403 39.403 0 0 0 0 9.154 2.486 2.486 0 0 0 2.193 2.164c2.977.332 6.057.332 9.034 0a2.486 2.486 0 0 0 2.193-2.164 39.401 39.401 0 0 0 0-9.154 2.486 2.486 0 0 0-2.193-2.164Z" clip-rule="evenodd"/></symbol><symbol xmlns="http://www.w3.org/2000/svg" id="success" fill="none" viewBox="0 0 19 18"><path fill="#fff" d="M4.483 2.26A2.486 2.486 0 0 0 2.29 4.422a39.403 39.403 0 0 0 0 9.154 2.486 2.486 0 0 0 2.193 2.164c2.977.332 6.057.332 9.034 0a2.486 2.486 0 0 0 2.193-2.164 39.4 39.4 0 0 0 .215-6.58.2.2 0 0 1 .059-.152l1.039-1.04a.198.198 0 0 1 .338.125 40.903 40.903 0 0 1-.162 7.822c-.215 1.836-1.69 3.275-3.516 3.48a42.512 42.512 0 0 1-9.366 0C2.49 17.026 1.015 15.588.8 13.751a40.902 40.902 0 0 1 0-9.504C1.015 2.412 2.49.973 4.317.768a42.502 42.502 0 0 1 9.366 0 3.988 3.988 0 0 1 1.76.64c.101.067.111.21.025.296l-.803.802a.211.211 0 0 1-.25.033 2.486 2.486 0 0 0-.898-.28 41.002 41.002 0 0 0-9.034 0Z"/><path fill="#fff" d="M18.03 3.03a.75.75 0 0 0-1.06-1.06L8.5 10.44 6.03 7.97a.75.75 0 1 0-1.06 1.06l3 3a.75.75 0 0 0 1.06 0l9-9Z"/></symbol><symbol xmlns="http://www.w3.org/2000/svg" id="warning" fill="none" viewBox="0 0 18 18"><path fill="#fff" d="M9 7.75a.75.75 0 0 1 .75.75v5a.75.75 0 0 1-1.5 0v-5A.75.75 0 0 1 9 7.75ZM9 6a1 1 0 1 0 0-2 1 1 0 0 0 0 2Z"/><path fill="#fff" fill-rule="evenodd" d="M.25 9a8.75 8.75 0 1 1 17.5 0A8.75 8.75 0 0 1 .25 9ZM9 1.75a7.25 7.25 0 1 0 0 14.5 7.25 7.25 0 0 0 0-14.5Z" clip-rule="evenodd"/></symbol></svg>