<svg width="0" height="0"><symbol xmlns="http://www.w3.org/2000/svg" id="bookmark" fill="none" viewBox="0 0 24 24"><path fill="#fff" fill-rule="evenodd" d="M15.924 4.418a23.778 23.778 0 0 0-7.848 0 1.194 1.194 0 0 0-.973.94 35.64 35.64 0 0 0-.142 13.327l.163.913 3.67-3.487a1.75 1.75 0 0 1 2.411 0l3.67 3.487.164-.913a35.64 35.64 0 0 0-.142-13.327 1.194 1.194 0 0 0-.973-.94ZM7.828 2.94a25.278 25.278 0 0 1 8.344 0 2.694 2.694 0 0 1 2.195 2.123c.923 4.579.973 9.29.149 13.888l-.222 1.235a1.323 1.323 0 0 1-2.213.726l-3.909-3.713a.25.25 0 0 0-.344 0l-3.909 3.713a1.323 1.323 0 0 1-2.213-.726l-.222-1.235a37.14 37.14 0 0 1 .148-13.888A2.694 2.694 0 0 1 7.828 2.94Z" clip-rule="evenodd"/></symbol><symbol xmlns="http://www.w3.org/2000/svg" id="history" fill="none" viewBox="0 0 24 24"><path fill="#fff" d="M6.865 6.882A7.25 7.25 0 1 1 4.75 12a.75.75 0 0 0-1.5 0 8.75 8.75 0 1 0 2.552-6.176.756.756 0 0 0-.07.08L4.475 4.646a.5.5 0 0 0-.852.309L3.27 8.844a.5.5 0 0 0 .543.543l3.89-.354a.5.5 0 0 0 .307-.851L6.782 6.954a.757.757 0 0 0 .083-.072Z"/><path fill="#fff" d="M12.75 7a.75.75 0 0 0-1.5 0v5a.75.75 0 0 0 .352.636l3 1.875a.75.75 0 1 0 .796-1.272l-2.648-1.655V7Z"/></symbol></svg>