<svg width="0" height="0"><symbol xmlns="http://www.w3.org/2000/svg" id="facebook" fill="none" viewBox="0 0 24 24"><rect width="24" height="24" fill="#337FFF" rx="12"/><path fill="#fff" d="m14.937 12.781.342-2.173h-2.107V9.196c0-.594.294-1.174 1.235-1.174h.971v-1.85a11.772 11.772 0 0 0-1.71-.147c-1.733 0-2.865 1.043-2.865 2.927v1.656H8.88v2.173h1.922v5.255h2.37v-5.255h1.764Z"/></symbol><symbol xmlns="http://www.w3.org/2000/svg" id="gmail" fill="none" viewBox="0 0 92 92"><rect width="91.32" height="92" fill="#fff" rx="45.66"/><path fill="#4285F4" d="M22.635 66h8.483V45.4L19 36.31v26.055A3.634 3.634 0 0 0 22.635 66Z"/><path fill="#34A853" d="M60.201 66h8.483a3.634 3.634 0 0 0 3.635-3.635V36.31L60.201 45.4"/><path fill="#FBBC04" d="M60.201 29.646v15.753l12.118-9.088v-4.848c0-4.495-5.132-7.058-8.725-4.362"/><path fill="#EA4335" d="M31.117 45.4V29.644L45.66 40.552l14.542-10.907V45.4L45.659 56.306"/><path fill="#C5221F" d="M19 31.463v4.848l12.118 9.088V29.646L27.725 27.1C24.126 24.405 19 26.968 19 31.464"/></symbol><symbol xmlns="http://www.w3.org/2000/svg" id="telegram" fill="none" viewBox="0 0 24 25"><rect width="24" height="24" y=".562" fill="#34AADF" rx="12"/><path fill="#fff" d="M6.677 12.137s4.883-2.057 6.576-2.781c.65-.29 2.85-1.217 2.85-1.217s1.017-.405.932.58c-.028.405-.254 1.825-.48 3.36-.338 2.172-.705 4.547-.705 4.547s-.057.666-.537.782c-.48.116-1.27-.405-1.41-.521-.114-.087-2.118-1.39-2.851-2.028-.198-.174-.424-.521.028-.927a106.85 106.85 0 0 0 2.963-2.896c.339-.348.678-1.159-.734-.174a240.426 240.426 0 0 1-3.98 2.752s-.45.29-1.297.029c-.847-.26-1.835-.609-1.835-.609s-.677-.434.48-.897Z"/></symbol><symbol xmlns="http://www.w3.org/2000/svg" id="viber" fill="none" viewBox="0 0 24 25"><rect width="24" height="24" y=".562" fill="#754A91" rx="12"/><path fill="#fff" d="M9.2 17.467v-.603a.06.06 0 0 0-.031-.064 3.486 3.486 0 0 1-1.383-.746 3.267 3.267 0 0 1-.7-.899 4.883 4.883 0 0 1-.497-1.558 11.408 11.408 0 0 1-.098-2.058c.006-.32.023-.637.06-.957a5.783 5.783 0 0 1 .459-1.766A3.06 3.06 0 0 1 8.555 7.26a6.42 6.42 0 0 1 1.476-.464 10.509 10.509 0 0 1 1.512-.172c.458-.016.916-.01 1.373.02a8.012 8.012 0 0 1 1.929.32c.465.132.908.333 1.313.596.395.268.714.632.928 1.056.251.496.422 1.028.506 1.577.055.326.09.654.108.984a13.618 13.618 0 0 1-.096 2.427 4.422 4.422 0 0 1-.546 1.703 3.162 3.162 0 0 1-1.736 1.411 8.022 8.022 0 0 1-1.545.37 12.075 12.075 0 0 1-2.05.112c-.168 0-.335-.017-.502-.031a.085.085 0 0 0-.086.036c-.338.403-.69.794-1.043 1.184a.985.985 0 0 1-.221.182.416.416 0 0 1-.623-.23 1.083 1.083 0 0 1-.052-.338v-.536Zm.408.764.043-.04.768-.844.884-.975a.14.14 0 0 1 .129-.056c.1.01.2.013.301.014.35 0 .698 0 1.047-.024.318-.025.634-.063.948-.112a9.686 9.686 0 0 0 1.003-.229c.735-.195 1.304-.614 1.661-1.292.211-.417.343-.869.39-1.333.056-.437.09-.877.1-1.318a8.454 8.454 0 0 0-.113-1.654 4.649 4.649 0 0 0-.342-1.149c-.208-.455-.502-.832-.954-1.074-.695-.372-1.447-.537-2.221-.622a9.402 9.402 0 0 0-.66-.044 11.78 11.78 0 0 0-1.355.007 8.192 8.192 0 0 0-.966.13c-.47.084-.924.237-1.348.454a2.439 2.439 0 0 0-.66.484A3.03 3.03 0 0 0 7.6 9.745a6.09 6.09 0 0 0-.246 1.582c-.03.536-.022 1.073.02 1.608.027.318.081.634.161.943.12.482.351.93.677 1.307.35.385.805.664 1.309.805.063.019.092.04.092.112-.006.262 0 .524 0 .786l-.005 1.343Z"/><path fill="#fff" d="M8.965 10.1c-.007-.2.103-.344.235-.474a3.31 3.31 0 0 1 .573-.436.463.463 0 0 1 .595.096c.25.26.473.544.668.848.096.136.168.288.215.448a.362.362 0 0 1-.092.358 3.259 3.259 0 0 1-.339.287.387.387 0 0 0-.133.407c.074.344.24.662.483.92.294.355.673.633 1.102.807.106.054.227.07.343.046a.315.315 0 0 0 .162-.104c.064-.081.134-.16.192-.246a.508.508 0 0 1 .694-.136c.312.18.606.386.878.62.065.054.132.107.196.162a.433.433 0 0 1 .14.506 1.34 1.34 0 0 1-.244.404c-.13.18-.296.331-.488.445a.685.685 0 0 1-.61.039 8.076 8.076 0 0 1-2.06-1.2 8.022 8.022 0 0 1-1.58-1.73 7.158 7.158 0 0 1-.873-1.74 2.201 2.201 0 0 1-.056-.227.483.483 0 0 1-.001-.1Zm3.173-.968a2.67 2.67 0 0 1 1.69.642c.47.404.782.958.882 1.567.04.22.062.445.064.67 0 .052-.013.09-.07.096-.057.006-.072-.043-.072-.091a3.025 3.025 0 0 0-.276-1.32 2.441 2.441 0 0 0-.692-.872 2.47 2.47 0 0 0-1.012-.479 2.736 2.736 0 0 0-.596-.069.206.206 0 0 1-.058-.007.063.063 0 0 1-.045-.076.056.056 0 0 1 .018-.041.06.06 0 0 1 .042-.016c.041-.006.083-.004.125-.004Z"/><path fill="#fff" d="M13.91 11.6a1.607 1.607 0 0 0-.676-1.292 1.746 1.746 0 0 0-.816-.303c-.05-.007-.1-.01-.15-.015-.05-.005-.08-.026-.076-.077.005-.051.037-.07.092-.066.814.05 1.506.505 1.72 1.355.039.163.058.331.058.5v.045c0 .046-.03.075-.075.075a.073.073 0 0 1-.07-.08c-.008-.042-.006-.086-.006-.142Z"/><path fill="#fff" d="M12.484 10.586c.447.03.758.247.844.718.01.06.017.12.022.182 0 .049-.011.09-.066.09-.054 0-.072-.036-.074-.09a.88.88 0 0 0-.16-.505.681.681 0 0 0-.44-.243.992.992 0 0 0-.117-.015c-.064 0-.1-.032-.091-.081.008-.05.046-.058.082-.056Z"/></symbol><symbol xmlns="http://www.w3.org/2000/svg" id="vk" fill="none" viewBox="0 0 24 25"><rect width="24" height="24" y=".804" fill="#2787F5" rx="12"/><path fill="#fff" fill-rule="evenodd" d="M19.004 9.348c.101-.317 0-.55-.483-.55h-1.596c-.406 0-.593.201-.695.423 0 0-.812 1.856-1.961 3.062-.372.349-.542.46-.745.46-.1 0-.248-.111-.248-.428V9.348c0-.38-.118-.55-.456-.55h-2.508c-.254 0-.406.177-.406.344 0 .36.575.444.634 1.46v2.204c0 .484-.093.572-.296.572-.541 0-1.857-1.865-2.638-3.998-.153-.415-.307-.582-.715-.582H5.295c-.456 0-.547.201-.547.423 0 .397.541 2.364 2.52 4.966 1.319 1.776 3.177 2.74 4.868 2.74 1.015 0 1.14-.215 1.14-.583V15c0-.428.096-.513.418-.513.236 0 .642.11 1.59.968 1.082 1.015 1.26 1.47 1.869 1.47h1.596c.456 0 .684-.214.552-.636-.143-.42-.66-1.03-1.346-1.754-.372-.413-.93-.857-1.1-1.08-.236-.285-.168-.412 0-.665 0 0 1.946-2.57 2.149-3.443Z" clip-rule="evenodd"/></symbol><symbol xmlns="http://www.w3.org/2000/svg" id="whatsapp" fill="none" viewBox="0 0 92 92"><rect width="91.562" height="91.562" fill="#00D95F" rx="45.781"/><path fill="#fff" d="m22.89 66.976 3.285-12.213a22.586 22.586 0 0 1-2.37-15.637 22.615 22.615 0 0 1 8.469-13.365 22.683 22.683 0 0 1 29.62 1.915 22.593 22.593 0 0 1 2.301 29.544 22.66 22.66 0 0 1-13.276 8.628 22.69 22.69 0 0 1-15.691-2.164L22.89 66.976Zm12.932-7.862.763.451a18.337 18.337 0 0 0 22.178-2.693 18.256 18.256 0 0 0 3.062-22.094 18.302 18.302 0 0 0-8.839-7.805 18.34 18.34 0 0 0-11.772-.8 18.313 18.313 0 0 0-9.818 6.536 18.261 18.261 0 0 0-3.785 11.157 18.052 18.052 0 0 0 2.677 9.477l.478.787-1.836 6.817 6.892-1.834Z"/><path fill="#fff" fill-rule="evenodd" d="M54.34 47.003a3.778 3.778 0 0 0-3.233-.736c-.84.349-1.383 1.666-1.926 2.324a.802.802 0 0 1-1.035.232 14.644 14.644 0 0 1-7.32-6.261.876.876 0 0 1 .117-1.214 5.059 5.059 0 0 0 1.293-2.156 4.693 4.693 0 0 0-.595-2.582 6.042 6.042 0 0 0-1.875-2.827 2.59 2.59 0 0 0-2.78.426 5.706 5.706 0 0 0-1.979 4.518c.002.48.063.957.181 1.42.3 1.116.762 2.182 1.371 3.164a24.4 24.4 0 0 0 1.436 2.182 22.033 22.033 0 0 0 6.22 5.758 18.752 18.752 0 0 0 3.88 1.846 8.6 8.6 0 0 0 4.513.71 5.422 5.422 0 0 0 4.086-3.034 2.578 2.578 0 0 0 .194-1.55c-.233-1.07-1.668-1.703-2.548-2.22Z" clip-rule="evenodd"/></symbol></svg>