<svg width="24" height="24" viewBox="0 0 24 24" fill="inherit" xmlns="http://www.w3.org/2000/svg">
  <path
    d="M5.59556 12L12.7045 2.91698C12.8143 2.77769 12.7152 2.57144 12.5357 2.57144H10.4652C10.334 2.57144 10.2081 2.63305 10.1277 2.73483L3.28931 11.4723C3.17088 11.6232 3.10651 11.8095 3.10651 12.0014C3.10651 12.1932 3.17088 12.3795 3.28931 12.5304L10.1277 21.2652C10.2081 21.3697 10.334 21.4286 10.4652 21.4286H12.5357C12.7152 21.4286 12.8143 21.2223 12.7045 21.083L5.59556 12ZM13.7384 12L20.8473 2.91698C20.9572 2.77769 20.8581 2.57144 20.6786 2.57144H18.6081C18.4768 2.57144 18.3509 2.63305 18.2706 2.73483L11.4322 11.4723C11.3137 11.6232 11.2494 11.8095 11.2494 12.0014C11.2494 12.1932 11.3137 12.3795 11.4322 12.5304L18.2706 21.2652C18.3509 21.3697 18.4768 21.4286 18.6081 21.4286H20.6786C20.8581 21.4286 20.9572 21.2223 20.8473 21.083L13.7384 12Z"
    fill="inherit" />
</svg>