<svg width="24" height="24" viewBox="0 0 24 24" fill="none" xmlns="http://www.w3.org/2000/svg">
<path fill-rule="evenodd" clip-rule="evenodd" d="M15.9242 4.41835C13.3311 3.98362 10.6689 3.98362 8.07583 4.41835C7.58783 4.50016 7.20024 4.87509 7.10296 5.35802C6.21788 9.752 6.16959 14.2735 6.96061 18.6854L7.12416 19.5976L10.7947 16.1106C11.4701 15.4689 12.5299 15.4689 13.2053 16.1106L16.8758 19.5976L17.0394 18.6854C17.8304 14.2735 17.7821 9.752 16.897 5.35802C16.7998 4.87509 16.4122 4.50016 15.9242 4.41835ZM7.82782 2.93899C10.5851 2.47674 13.4149 2.47674 16.1722 2.93899C17.2714 3.12327 18.147 3.96709 18.3675 5.06183C19.2898 9.64074 19.3402 14.3525 18.5158 18.9501L18.2944 20.1854C18.1085 21.2223 16.8444 21.6367 16.0807 20.9112L12.1722 17.1981C12.0757 17.1064 11.9243 17.1064 11.8278 17.1981L7.91928 20.9112C7.15558 21.6367 5.89154 21.2223 5.70564 20.1854L5.48416 18.9501C4.65984 14.3525 4.71016 9.64074 5.63249 5.06183C5.85301 3.96709 6.7286 3.12327 7.82782 2.93899Z" fill="white"/>
</svg>
