<svg width="12" height="12" viewBox="0 0 12 12" fill="none" xmlns="http://www.w3.org/2000/svg">
  <rect width="12" height="12" rx="6" fill="white" />
  <g clip-path="url(#clip0_175_23)">
    <path
      d="M10.4125 5.11867H10.05V5.1H6V6.9H8.54317C8.17215 7.94782 7.17517 8.7 6 8.7C4.50892 8.7 3.3 7.49107 3.3 6C3.3 4.50892 4.50892 3.3 6 3.3C6.68827 3.3 7.31445 3.55965 7.79122 3.98377L9.06405 2.71095C8.26035 1.96192 7.1853 1.5 6 1.5C3.51487 1.5 1.5 3.51487 1.5 6C1.5 8.48512 3.51487 10.5 6 10.5C8.48512 10.5 10.5 8.48512 10.5 6C10.5 5.69827 10.4689 5.40375 10.4125 5.11867Z"
      fill="#FFC107" />
    <path
      d="M2.0188 3.90547L3.49728 4.98975C3.89733 3.9993 4.86618 3.3 5.99995 3.3C6.68823 3.3 7.3144 3.55965 7.79118 3.98377L9.064 2.71095C8.2603 1.96192 7.18525 1.5 5.99995 1.5C4.2715 1.5 2.77255 2.47582 2.0188 3.90547Z"
      fill="#FF3D00" />
    <path
      d="M6.00002 10.5C7.16237 10.5 8.21852 10.0553 9.01705 9.33188L7.6243 8.15333C7.1725 8.49556 6.6109 8.70008 6.00002 8.70008C4.82957 8.70008 3.83575 7.95376 3.46135 6.91223L1.9939 8.04286C2.73865 9.50018 4.2511 10.5 6.00002 10.5Z"
      fill="#4CAF50" />
    <path
      d="M10.4125 5.11865H10.05V5.09998H6V6.89998H8.54317C8.36497 7.4033 8.0412 7.83733 7.6236 8.15345C7.62382 8.15323 7.62405 8.15323 7.62427 8.153L9.01703 9.33155C8.91848 9.4211 10.5 8.24998 10.5 5.99998C10.5 5.69825 10.4689 5.40373 10.4125 5.11865Z"
      fill="#1976D2" />
  </g>
  <defs>
    <clipPath id="clip0_175_23">
      <rect width="9" height="9" fill="white" transform="translate(1.5 1.5)" />
    </clipPath>
  </defs>
</svg>