<svg width="24" height="24" viewBox="0 0 24 24" fill="none" xmlns="http://www.w3.org/2000/svg">
<path d="M12 14.75C13.5188 14.75 14.75 13.5188 14.75 12C14.75 10.4812 13.5188 9.25 12 9.25C10.4812 9.25 9.25 10.4812 9.25 12C9.25 13.5188 10.4812 14.75 12 14.75Z" stroke="white" stroke-width="1.5" stroke-miterlimit="10" stroke-linecap="round" stroke-linejoin="round"/>
<path d="M2.83337 12.8066V11.1933C2.83337 10.24 3.61254 9.45165 4.57504 9.45165C6.23421 9.45165 6.91254 8.27832 6.07837 6.83915C5.60171 6.01415 5.88587 4.94165 6.72004 4.46498L8.30587 3.55748C9.03004 3.12665 9.96504 3.38332 10.3959 4.10748L10.4967 4.28165C11.3217 5.72082 12.6784 5.72082 13.5125 4.28165L13.6134 4.10748C14.0442 3.38332 14.9792 3.12665 15.7034 3.55748L17.2892 4.46498C18.1234 4.94165 18.4075 6.01415 17.9309 6.83915C17.0967 8.27832 17.775 9.45165 19.4342 9.45165C20.3875 9.45165 21.1759 10.2308 21.1759 11.1933V12.8066C21.1759 13.76 20.3967 14.5483 19.4342 14.5483C17.775 14.5483 17.0967 15.7216 17.9309 17.1608C18.4075 17.995 18.1234 19.0583 17.2892 19.535L15.7034 20.4425C14.9792 20.8733 14.0442 20.6166 13.6134 19.8925L13.5125 19.7183C12.6875 18.2791 11.3309 18.2791 10.4967 19.7183L10.3959 19.8925C9.96504 20.6166 9.03004 20.8733 8.30587 20.4425L6.72004 19.535C5.88587 19.0583 5.60171 17.9858 6.07837 17.1608C6.91254 15.7216 6.23421 14.5483 4.57504 14.5483C3.61254 14.5483 2.83337 13.76 2.83337 12.8066Z" stroke="white" stroke-width="1.5" stroke-miterlimit="10" stroke-linecap="round" stroke-linejoin="round"/>
</svg>
