<svg width="24" height="24" viewBox="0 0 24 24" fill="none" xmlns="http://www.w3.org/2000/svg">
<path fill-rule="evenodd" clip-rule="evenodd" d="M0.288198 18.7903C-0.0156868 18.4631 -0.0868066 17.972 0.11096 17.5665L1.07302 15.5939C3.34995 10.9251 7.962 7.98237 13.0023 7.98238H13.4753C13.5098 7.20438 13.5543 6.42674 13.6089 5.64967L13.7019 4.32452C13.7776 3.24687 14.9349 2.64446 15.8118 3.22624C18.6886 5.1348 21.1895 7.59403 23.1813 10.4728L23.8068 11.3769C24.0644 11.7493 24.0644 12.2507 23.8068 12.6231L23.1813 13.5272C21.1895 16.406 18.6886 18.8652 15.8118 20.7738C14.9349 21.3555 13.7776 20.7531 13.7019 19.6755L13.6089 18.3503C13.5437 17.4223 13.4929 16.4935 13.4563 15.5643C10.508 15.4759 7.56323 16.0938 4.85691 17.3906L1.45962 19.0186C1.06214 19.2091 0.592083 19.1175 0.288198 18.7903ZM3.33036 15.7698L3.99485 15.4513C7.30155 13.8668 10.9297 13.1978 14.5299 13.4849C15.0542 13.5267 15.4637 13.9724 15.4792 14.5181C15.5141 15.7446 15.5746 16.9706 15.6606 18.195L15.668 18.3011C17.9219 16.647 19.8971 14.6131 21.5105 12.281L21.705 12L21.5105 11.719C19.8971 9.38695 17.9219 7.35304 15.668 5.69893L15.6606 5.80495C15.5838 6.89796 15.5274 7.99212 15.4914 9.08683C15.4724 9.66208 15.0178 10.1183 14.4634 10.1183L13.0023 10.1183C9.02882 10.1182 5.3699 12.2796 3.33036 15.7698Z" fill="white"/>
</svg>
