<svg width="24" height="24" viewBox="0 0 24 24" fill="none" xmlns="http://www.w3.org/2000/svg">
<path d="M8.00002 7.25C8.41423 7.25 8.75002 7.58579 8.75002 8V9.25H10C10.4142 9.25 10.75 9.58579 10.75 10C10.75 10.4142 10.4142 10.75 10 10.75H8.75002V12C8.75002 12.4142 8.41423 12.75 8.00001 12.75C7.5858 12.75 7.25002 12.4142 7.25002 12V10.75H6.00002C5.5858 10.75 5.25002 10.4142 5.25002 10C5.25002 9.58579 5.5858 9.25 6.00002 9.25H7.25002V8C7.25002 7.58579 7.5858 7.25 8.00002 7.25Z" fill="white"/>
<path d="M17 11.75C17 11.1977 16.5523 10.75 16 10.75C15.4477 10.75 15 11.1977 15 11.75V12C15 12.5523 15.4477 13 16 13C16.5523 13 17 12.5523 17 12V11.75Z" fill="white"/>
<path d="M16 7C16.5523 7 17 7.44772 17 8V8.25C17 8.80228 16.5523 9.25 16 9.25C15.4477 9.25 15 8.80228 15 8.25V8C15 7.44772 15.4477 7 16 7Z" fill="white"/>
<path d="M19 10C19 10.5523 18.5523 11 18 11H17.75C17.1977 11 16.75 10.5523 16.75 10C16.75 9.44771 17.1977 9 17.75 9H18C18.5523 9 19 9.44772 19 10Z" fill="white"/>
<path d="M14.25 11C14.8023 11 15.25 10.5523 15.25 10C15.25 9.44772 14.8023 9 14.25 9H14C13.4477 9 13 9.44771 13 10C13 10.5523 13.4477 11 14 11H14.25Z" fill="white"/>
<path fill-rule="evenodd" clip-rule="evenodd" d="M12.75 3C12.75 2.58579 12.4142 2.25 12 2.25C11.5858 2.25 11.25 2.58579 11.25 3V4.48688C9.81091 4.50654 8.37239 4.58282 6.93779 4.71571L6.60619 4.74642C4.21449 4.96797 2.3728 6.95407 2.3321 9.35566L2.32001 10.0691C2.2727 12.8602 2.49769 15.6492 2.99176 18.3967C3.23672 19.7588 4.42206 20.75 5.80606 20.75H6.02711C7.26247 20.75 8.38178 20.022 8.88264 18.8927L9.94324 16.5014C10.7344 14.7177 13.2657 14.7177 14.0568 16.5014L15.1174 18.8927C15.6183 20.022 16.7376 20.75 17.9729 20.75H18.194C19.578 20.75 20.7633 19.7588 21.0083 18.3967C21.5023 15.6492 21.7273 12.8602 21.68 10.0691L21.6679 9.35566C21.6272 6.95406 19.7855 4.96797 17.3939 4.74643L17.0622 4.71571C15.6276 4.58282 14.1891 4.50654 12.75 4.48688V3ZM7.07614 6.20931C10.3517 5.9059 13.6483 5.9059 16.9239 6.20931L17.2555 6.24003C18.8854 6.39101 20.1404 7.74447 20.1681 9.38108L20.1802 10.0945C20.2259 12.7881 20.0088 15.4797 19.532 18.1312C19.4155 18.7788 18.852 19.25 18.194 19.25H17.9729C17.3308 19.25 16.7489 18.8716 16.4886 18.2846L15.428 15.8933C14.1095 12.9205 9.89058 12.9205 8.57206 15.8933L7.51146 18.2846C7.2511 18.8716 6.66927 19.25 6.02711 19.25H5.80606C5.14807 19.25 4.58454 18.7788 4.46808 18.1312C3.99126 15.4797 3.77414 12.7881 3.81979 10.0945L3.83188 9.38108C3.85962 7.74447 5.11467 6.39101 6.74454 6.24003L7.07614 6.20931Z" fill="white"/>
</svg>
