<svg width="92" height="92" viewBox="0 0 92 92" fill="none" xmlns="http://www.w3.org/2000/svg">
<rect width="91.3199" height="92" rx="45.66" fill="white"/>
<path d="M22.6354 66H31.1182V45.3992L19 36.3105V62.3646C19 64.3762 20.6299 66 22.6354 66Z" fill="#4285F4"/>
<path d="M60.2012 66H68.6839C70.6955 66 72.3193 64.3702 72.3193 62.3646V36.3105L60.2012 45.3992" fill="#34A853"/>
<path d="M60.2012 29.6458V45.3994L72.3193 36.3108V31.4635C72.3193 26.9676 67.1873 24.4047 63.5943 27.1009" fill="#FBBC04"/>
<path d="M31.1172 45.3991V29.6455L45.659 40.5519L60.2008 29.6455V45.3991L45.659 56.3055" fill="#EA4335"/>
<path d="M19 31.4635V36.3108L31.1182 45.3994V29.6458L27.7251 27.1009C24.126 24.4047 19 26.9676 19 31.4635" fill="#C5221F"/>
</svg>
