<svg width="24" height="24" viewBox="0 0 24 24" fill="none" xmlns="http://www.w3.org/2000/svg">
<path d="M8.38965 18.49V8.32998C8.38965 7.92998 8.50965 7.53998 8.72965 7.20998L11.4596 3.14998C11.8896 2.49998 12.9596 2.03998 13.8696 2.37998C14.8496 2.70998 15.4996 3.80997 15.2896 4.78997L14.7696 8.05998C14.7296 8.35998 14.8096 8.62998 14.9796 8.83998C15.1496 9.02998 15.3996 9.14997 15.6696 9.14997H19.7796C20.5696 9.14997 21.2496 9.46997 21.6496 10.03C22.0296 10.57 22.0996 11.27 21.8496 11.98L19.3896 19.47C19.0796 20.71 17.7296 21.72 16.3896 21.72H12.4896C11.8196 21.72 10.8796 21.49 10.4496 21.06L9.16965 20.07C8.67965 19.7 8.38965 19.11 8.38965 18.49Z" fill="white"/>
<path d="M5.21 6.38H4.18C2.63 6.38 2 6.98 2 8.46V18.52C2 20 2.63 20.6 4.18 20.6H5.21C6.76 20.6 7.39 20 7.39 18.52V8.46C7.39 6.98 6.76 6.38 5.21 6.38Z" fill="white"/>
</svg>
