<svg width="20" height="20" viewBox="0 0 20 20" fill="inherit" xmlns="http://www.w3.org/2000/svg">
	<g clip-path="url(#clip0_151_69)">
		<path
			d="M10 1.14062C5.06406 1.14062 1.14062 5.06406 1.14062 10C1.14062 14.9359 5.06406 18.8594 10 18.8594C14.9359 18.8594 18.8594 14.9359 18.8594 10C18.8594 5.06406 14.9359 1.14062 10 1.14062ZM6.20312 16.5813V14.6828C6.20312 13.5438 6.9625 12.6578 8.10156 12.5312H11.8984C13.0375 12.6578 13.7969 13.5438 13.7969 14.6828V16.5813C11.3922 17.9734 8.60781 17.9734 6.20312 16.5813ZM15.0625 15.0625V14.05C15.0625 12.9109 13.6703 11.3922 11.8984 11.2656H8.10156C6.32969 11.3922 4.9375 12.9109 4.9375 14.6828V15.3156V15.6953C1.77344 12.9109 1.52031 8.10156 4.30469 4.9375C7.08906 1.77344 11.8984 1.52031 15.0625 4.30469C18.2266 7.08906 18.4797 11.8984 15.6953 15.0625C15.5688 15.3156 15.3156 15.4422 15.0625 15.6953V15.0625Z"
			fill="inherit" />
		<path
			d="M10 3.67188C8.22812 3.67188 6.83594 5.06406 6.83594 6.83594C6.83594 8.60781 8.22812 10 10 10C11.7719 10 13.1641 8.60781 13.1641 6.83594C13.1641 5.06406 11.7719 3.67188 10 3.67188ZM10 8.73438C8.9875 8.73438 8.10156 7.84844 8.10156 6.83594C8.10156 5.82344 8.9875 4.9375 10 4.9375C11.0125 4.9375 11.8984 5.82344 11.8984 6.83594C11.8984 7.84844 11.0125 8.73438 10 8.73438Z"
			fill="inherit" />
	</g>
</svg>
