<svg width="20" height="20" viewBox="0 0 20 20" fill="none" xmlns="http://www.w3.org/2000/svg">
<path d="M19 10.0015C19.0005 8.50465 18.6275 7.03129 17.9148 5.71491C17.2021 4.39852 16.1722 3.28069 14.9185 2.46265C13.6648 1.6446 12.2267 1.1522 10.7346 1.03003C9.24251 0.90785 7.74346 1.15977 6.37329 1.76295C5.00313 2.36615 3.80509 3.30156 2.88771 4.48447C1.97032 5.66739 1.36255 7.06043 1.11945 8.53745C0.876348 10.0145 1.00559 11.5288 1.49548 12.9432C1.98537 14.3577 2.82042 15.6277 3.925 16.638L4.0375 16.7418C5.68282 18.1968 7.80353 19 10 19C12.1965 19 14.3172 18.1968 15.9625 16.7418L16.075 16.638C16.9976 15.7963 17.7343 14.7712 18.238 13.6284C18.7416 12.4856 19.0012 11.2503 19 10.0015ZM2.38462 10.0015C2.38416 8.76833 2.68329 7.55345 3.25629 6.46137C3.82928 5.36931 4.659 4.43275 5.67408 3.73222C6.68916 3.03169 7.85925 2.58816 9.08368 2.43978C10.3081 2.29139 11.5503 2.44258 12.7034 2.88036C13.8564 3.31813 14.8859 4.02937 15.7032 4.95294C16.5206 5.8765 17.1013 6.98474 17.3955 8.18236C17.6898 9.37994 17.6887 10.6311 17.3923 11.8282C17.096 13.0253 16.5132 14.1325 15.6942 15.0546C14.9223 13.9353 13.8348 13.0709 12.5702 12.5713C13.2485 12.0371 13.7435 11.3049 13.9862 10.4765C14.229 9.64796 14.2076 8.76449 13.9249 7.94876C13.6422 7.13302 13.1123 6.42566 12.4088 5.92503C11.7054 5.4244 10.8634 5.15538 10 5.15538C9.13659 5.15538 8.29458 5.4244 7.59119 5.92503C6.88774 6.42566 6.35783 7.13302 6.07512 7.94876C5.79241 8.76449 5.77097 9.64796 6.01376 10.4765C6.25654 11.3049 6.7515 12.0371 7.42981 12.5713C6.16514 13.0709 5.07768 13.9353 4.30577 15.0546C3.06599 13.6636 2.38208 11.8647 2.38462 10.0015ZM7.23077 9.30931C7.23077 8.76168 7.39318 8.2264 7.69745 7.77104C8.00172 7.31571 8.43423 6.96082 8.94028 6.75126C9.44624 6.54169 10.0031 6.48686 10.5402 6.5937C11.0774 6.70053 11.5709 6.96423 11.9581 7.35146C12.3454 7.73867 12.6092 8.23203 12.7161 8.76918C12.8229 9.30624 12.768 9.86299 12.5584 10.3689C12.3488 10.8748 11.9939 11.3073 11.5385 11.6115C11.0831 11.9157 10.5477 12.0781 10 12.0781C9.26628 12.0758 8.56324 11.7834 8.04441 11.2646C7.52558 10.7459 7.23305 10.0429 7.23077 9.30931ZM5.33558 16.015C5.83657 15.2326 6.52638 14.5888 7.34149 14.1429C8.15663 13.6969 9.07081 13.4632 10 13.4632C10.9292 13.4632 11.8434 13.6969 12.6585 14.1429C13.4736 14.5888 14.1635 15.2326 14.6644 16.015C13.3307 17.052 11.6895 17.6151 10 17.6151C8.31051 17.6151 6.66923 17.052 5.33558 16.015Z" fill="white"/>
</svg>
