<svg width="26" height="26" viewBox="0 0 26 26" fill="inherit" xmlns="http://www.w3.org/2000/svg">
	<path
		d="M23.5625 13C23.5631 11.243 23.1253 9.51359 22.2889 7.96844C21.4525 6.42328 20.2438 5.11119 18.7724 4.15098C17.301 3.19077 15.6133 2.61279 13.8621 2.46939C12.111 2.32598 10.3517 2.62168 8.74366 3.32969C7.13562 4.03771 5.72959 5.13569 4.65294 6.52417C3.57628 7.91266 2.86299 9.5478 2.57769 11.2815C2.29238 13.0152 2.44406 14.7927 3.019 16.4529C3.59394 18.1132 4.57396 19.6039 5.87031 20.7898L6.00235 20.9117C7.93331 22.6195 10.4222 23.5623 13 23.5623C15.5778 23.5623 18.0667 22.6195 19.9977 20.9117L20.1297 20.7898C21.2125 19.8018 22.0771 18.5986 22.6682 17.2572C23.2593 15.9158 23.5639 14.4658 23.5625 13ZM4.0625 13C4.06197 11.5525 4.41303 10.1265 5.08551 8.84463C5.75798 7.56278 6.73174 6.46346 7.92305 5.64119C9.11436 4.81892 10.4876 4.29831 11.9246 4.12414C13.3616 3.94996 14.8194 4.12743 16.1727 4.64128C17.5259 5.15513 18.7341 5.98998 19.6934 7.07405C20.6526 8.15812 21.3342 9.45895 21.6795 10.8647C22.0248 12.2704 22.0235 13.739 21.6757 15.1441C21.3279 16.5493 20.644 17.8489 19.6828 18.9313C18.7769 17.6174 17.5006 16.6028 16.0164 16.0164C16.8125 15.3894 17.3934 14.5299 17.6783 13.5575C17.9632 12.585 17.9381 11.548 17.6063 10.5905C17.2745 9.633 16.6526 8.80271 15.827 8.21508C15.0015 7.62744 14.0133 7.31167 13 7.31167C11.9867 7.31167 10.9985 7.62744 10.173 8.21508C9.34742 8.80271 8.72551 9.633 8.39372 10.5905C8.06193 11.548 8.03676 12.585 8.3217 13.5575C8.60664 14.5299 9.18753 15.3894 9.9836 16.0164C8.49937 16.6028 7.22311 17.6174 6.31719 18.9313C4.86217 17.2985 4.05952 15.187 4.0625 13ZM9.75 12.1875C9.75 11.5447 9.94061 10.9164 10.2977 10.3819C10.6548 9.84744 11.1624 9.43088 11.7563 9.18489C12.3501 8.93891 13.0036 8.87455 13.634 8.99995C14.2645 9.12535 14.8436 9.43488 15.2981 9.8894C15.7526 10.3439 16.0622 10.923 16.1876 11.5535C16.313 12.1839 16.2486 12.8374 16.0026 13.4312C15.7566 14.0251 15.3401 14.5327 14.8056 14.8898C14.2711 15.2469 13.6428 15.4375 13 15.4375C12.1389 15.4348 11.3138 15.0916 10.7049 14.4826C10.096 13.8737 9.75268 13.0486 9.75 12.1875ZM7.52578 20.0586C8.11375 19.1402 8.92332 18.3845 9.87995 17.8611C10.8366 17.3376 11.9095 17.0633 13 17.0633C14.0905 17.0633 15.1634 17.3376 16.1201 17.8611C17.0767 18.3845 17.8863 19.1402 18.4742 20.0586C16.909 21.2758 14.9828 21.9367 13 21.9367C11.0172 21.9367 9.09097 21.2758 7.52578 20.0586Z"
		fill="inherit" />
</svg>
