<svg width="26" height="26" viewBox="0 0 26 26" fill="inherit" xmlns="http://www.w3.org/2000/svg">
	<path
		d="M23.5625 22.4136L17.4265 16.2776C18.901 14.5074 19.6363 12.2369 19.4794 9.93843C19.3225 7.63992 18.2855 5.49038 16.5841 3.93698C14.8828 2.38359 12.648 1.54593 10.3447 1.59826C8.04146 1.65059 5.84704 2.58889 4.21797 4.21797C2.58889 5.84704 1.65059 8.04146 1.59826 10.3447C1.54593 12.648 2.38359 14.8828 3.93698 16.5841C5.49038 18.2855 7.63992 19.3225 9.93843 19.4794C12.2369 19.6363 14.5074 18.901 16.2776 17.4265L22.4136 23.5625L23.5625 22.4136ZM3.25 10.5625C3.25 9.11623 3.67887 7.70243 4.48238 6.4999C5.28589 5.29736 6.42795 4.3601 7.76413 3.80663C9.10032 3.25317 10.5706 3.10836 11.9891 3.39051C13.4076 3.67266 14.7106 4.36911 15.7332 5.39178C16.7559 6.41446 17.4523 7.71742 17.7345 9.1359C18.0167 10.5544 17.8718 12.0247 17.3184 13.3609C16.7649 14.6971 15.8276 15.8391 14.6251 16.6426C13.4226 17.4461 12.0088 17.875 10.5625 17.875C8.62377 17.8729 6.76505 17.1017 5.39416 15.7308C4.02327 14.36 3.25215 12.5012 3.25 10.5625Z"
		fill="inherit" />
</svg>
