<svg width="20" height="20" viewBox="0 0 20 20" fill="inherit" xmlns="http://www.w3.org/2000/svg">
	<path
		d="M19 18.0966L13.4505 12.5471C15.9026 9.57881 15.5154 5.0618 12.5471 2.60971C9.57881 0.157616 5.0618 0.544788 2.60971 3.51311C0.157616 6.48143 0.544788 10.9984 3.51311 13.4505C6.09426 15.6445 9.96598 15.6445 12.5471 13.4505L18.0966 19L19 18.0966ZM2.22253 8.03012C2.22253 4.80368 4.80368 2.22253 8.03012 2.22253C11.2566 2.22253 13.8377 4.80368 13.8377 8.03012C13.8377 11.2566 11.2566 13.8377 8.03012 13.8377C4.80368 13.8377 2.22253 11.2566 2.22253 8.03012Z"
		fill="inherit" />
</svg>
