<svg width="25" height="24" viewBox="0 0 25 24" fill="none" xmlns="http://www.w3.org/2000/svg">
<g clip-path="url(#clip0_271_28)">
<path fill-rule="evenodd" clip-rule="evenodd" d="M0.788198 18.7903C0.484313 18.4631 0.413193 17.972 0.61096 17.5665L1.57302 15.5939C3.84995 10.9251 8.462 7.98237 13.5023 7.98238H13.9753C14.0098 7.20438 14.0543 6.42674 14.1089 5.64967L14.2019 4.32452C14.2776 3.24687 15.4349 2.64446 16.3118 3.22624C19.1886 5.1348 21.6895 7.59403 23.6813 10.4728L24.3068 11.3769C24.5644 11.7493 24.5644 12.2507 24.3068 12.6231L23.6813 13.5272C21.6895 16.406 19.1886 18.8652 16.3118 20.7738C15.4349 21.3555 14.2776 20.7531 14.2019 19.6755L14.1089 18.3503C14.0437 17.4223 13.9929 16.4935 13.9563 15.5643C11.008 15.4759 8.06323 16.0938 5.35691 17.3906L1.95962 19.0186C1.56214 19.2091 1.09208 19.1175 0.788198 18.7903ZM3.83036 15.7698L4.49485 15.4513C7.80155 13.8668 11.4297 13.1978 15.0299 13.4849C15.5542 13.5267 15.9637 13.9724 15.9792 14.5181C16.0141 15.7446 16.0746 16.9706 16.1606 18.195L16.168 18.3011C18.4219 16.647 20.3971 14.6131 22.0105 12.281L22.205 12L22.0105 11.719C20.3971 9.38695 18.4219 7.35304 16.168 5.69893L16.1606 5.80495C16.0838 6.89796 16.0274 7.99212 15.9914 9.08683C15.9724 9.66208 15.5178 10.1183 14.9634 10.1183H13.5023C9.52882 10.1182 5.8699 12.2796 3.83036 15.7698Z" fill="white"/>
</g>
<defs>
<clipPath id="clip0_271_28">
<rect width="24" height="24" fill="white" transform="translate(0.5)"/>
</clipPath>
</defs>
</svg>
