<svg width="24" height="24" viewBox="0 0 24 24" fill="none" xmlns="http://www.w3.org/2000/svg">
<path
    fill-rule="evenodd"
    clip-rule="evenodd"
    d="M5.7876 14.0196C5.83137 14.0344 5.87555 14.0448 5.91969 14.0512C5.96783 14.1644 6.03002 14.3107 6.10258 14.4818C6.27966 14.8994 6.51825 15.4643 6.76452 16.0535C7.26677 17.2552 7.77338 18.4939 7.88527 18.8485C8.02378 19.2868 8.17019 19.5848 8.33002 19.7883C8.41267 19.8935 8.50825 19.9853 8.62009 20.0549C8.67639 20.0899 8.73587 20.1186 8.79795 20.14C8.80068 20.141 8.80341 20.1419 8.80614 20.1428C9.12616 20.2636 9.41792 20.2133 9.60059 20.1518C9.69833 20.1188 9.77741 20.0791 9.83346 20.0469C9.86204 20.0304 9.88618 20.0151 9.90544 20.0021L9.90998 19.9991L12.7362 18.2366L16.0007 20.7394C16.0489 20.7763 16.1014 20.8073 16.1571 20.8316C16.5493 21.0027 16.929 21.0624 17.2863 21.0136C17.6429 20.9649 17.9261 20.8151 18.1369 20.6464C18.3433 20.4813 18.4832 20.2963 18.5704 20.1589C18.6149 20.0887 18.6483 20.0266 18.6718 19.9791C18.6837 19.9552 18.6932 19.9346 18.7005 19.9181L18.71 19.8963L18.7135 19.8877L18.715 19.8841L18.7157 19.8824L18.7163 19.8808C18.7335 19.8379 18.7466 19.7935 18.7556 19.7482L21.7359 4.72274C21.7454 4.67469 21.7502 4.62581 21.7502 4.57682C21.7502 4.13681 21.5844 3.71841 21.1946 3.46452C20.8614 3.24752 20.4902 3.23818 20.2556 3.25598C20.0026 3.27519 19.7689 3.33766 19.612 3.38757C19.5304 3.41355 19.462 3.43861 19.4127 3.45773C19.3879 3.46734 19.3675 3.47559 19.3524 3.48188L19.341 3.48666L2.62731 10.0432L2.62515 10.044C2.6145 10.0479 2.60082 10.053 2.58457 10.0593C2.55221 10.0719 2.50884 10.0896 2.45819 10.1126C2.35941 10.1574 2.22083 10.2273 2.07862 10.3247C1.85143 10.4803 1.32894 10.9064 1.41692 11.6097C1.48711 12.1708 1.87149 12.5154 2.10568 12.6811C2.23427 12.7721 2.35644 12.8371 2.44541 12.8795C2.48668 12.8991 2.57238 12.9339 2.60956 12.9491L2.61895 12.9529L5.7876 14.0196ZM19.926 4.86786L19.9236 4.86888C19.9153 4.8725 19.9069 4.87596 19.8985 4.87928L3.16446 11.4438C3.15572 11.4472 3.14692 11.4505 3.13806 11.4536L3.12875 11.4571C3.11804 11.4613 3.10002 11.4686 3.0774 11.4788C3.06457 11.4846 3.05118 11.491 3.03753 11.4978C3.05629 11.5084 3.07423 11.5175 3.09018 11.5251C3.10549 11.5324 3.11717 11.5374 3.12356 11.54L6.26619 12.598C6.32371 12.6174 6.37733 12.643 6.42655 12.674L16.8033 6.59948L16.813 6.59374C16.8206 6.58927 16.8305 6.58353 16.8424 6.5768C16.866 6.56345 16.8985 6.54568 16.9371 6.52603C17.0091 6.48938 17.1243 6.43497 17.2541 6.39485C17.3445 6.36692 17.611 6.28823 17.8991 6.38064C18.0769 6.43767 18.261 6.56028 18.3807 6.76798C18.4402 6.87117 18.4719 6.97483 18.4872 7.06972C18.528 7.2192 18.5216 7.36681 18.4897 7.49424C18.4209 7.76875 18.228 7.98287 18.0525 8.14665C17.9022 8.28706 15.9568 10.1629 14.0377 12.0147C13.0806 12.9381 12.1333 13.8525 11.4253 14.5359L10.9602 14.9849L16.8322 19.4867C16.9668 19.5349 17.0464 19.5325 17.0833 19.5274C17.1272 19.5214 17.1631 19.5045 17.1998 19.4752C17.2408 19.4424 17.2767 19.398 17.3035 19.3557L17.3046 19.354L20.1951 4.78102C20.1522 4.79133 20.1088 4.80361 20.067 4.81691C20.0196 4.83198 19.9806 4.84634 19.9547 4.85637C19.9419 4.86134 19.9327 4.86511 19.9277 4.86719L19.926 4.86786ZM11.4647 17.2618L10.2932 16.3636L10.0093 18.1693L11.4647 17.2618ZM9.21852 14.5814L10.3835 13.4567C11.0916 12.7732 12.039 11.8588 12.9961 10.9352L13.9686 9.997L7.44859 13.8138L7.48357 13.8963C7.66127 14.3154 7.90093 14.8827 8.14851 15.4751C8.33364 15.918 8.52723 16.3844 8.70356 16.8162L8.98659 15.0158C9.01388 14.8422 9.09868 14.692 9.21852 14.5814Z"
    fill="white"
  />
</svg>
