<svg width="24" height="24" viewBox="0 0 24 24" fill="none" xmlns="http://www.w3.org/2000/svg">
<path
    d="M7.96472 6.20181C7.77897 6.17467 7.58952 6.21196 7.42791 6.30747H7.41413C7.03892 6.5274 6.70092 6.80538 6.41269 7.13106C6.17316 7.408 6.04322 7.68822 6.0091 7.95794C5.98875 8.11872 6.00253 8.2795 6.05044 8.43306L6.0675 8.44356C6.33722 9.23631 6.68963 9.99887 7.12013 10.7168C7.67467 11.7254 8.35713 12.6582 9.15057 13.4921L9.17419 13.5262L9.2116 13.5538L9.23522 13.5813L9.26278 13.605C10.0997 14.4007 11.0347 15.0864 12.0453 15.6452C13.2003 16.2739 13.9012 16.5712 14.3218 16.6946V16.7012C14.4452 16.7386 14.5574 16.7556 14.6703 16.7556C15.0288 16.7294 15.3682 16.5838 15.6343 16.3422C15.9585 16.0539 16.2334 15.7145 16.4481 15.3375V15.3309C16.6495 14.9516 16.5813 14.5926 16.2906 14.3498C15.7083 13.8409 15.0788 13.3889 14.4104 12.9999C13.9628 12.7571 13.5081 12.9041 13.3237 13.1502L12.9306 13.6457C12.7291 13.8917 12.3629 13.8576 12.3629 13.8576L12.3524 13.8642C9.62175 13.1666 8.89332 10.4018 8.89332 10.4018C8.89332 10.4018 8.85919 10.0258 9.11185 9.83415L9.60403 9.43778C9.83963 9.24615 10.0037 8.79203 9.75103 8.34381C9.36477 7.67454 8.91373 7.0448 8.40441 6.46365C8.29306 6.32665 8.13685 6.23343 7.96341 6.2005L7.96472 6.20181Z"
    fill="white"
  />
<path
    d="M12.5792 5C12.3031 5 12.0792 5.22386 12.0792 5.5C12.0792 5.77614 12.3031 6 12.5792 6C13.8437 6 14.8944 6.41332 15.7245 7.20475C16.1518 7.63814 16.4844 8.15115 16.7028 8.71254C16.922 9.27604 17.0217 9.87691 16.9961 10.4788C16.9844 10.7547 17.1985 10.9878 17.4744 10.9995C17.7503 11.0113 17.9835 10.7971 17.9952 10.5212C18.0267 9.7808 17.9039 9.04205 17.6347 8.35C17.3655 7.65798 16.9558 7.02737 16.4307 6.49648L16.4207 6.48686C15.3907 5.50184 14.0851 5 12.5792 5Z"
    fill="white"
  />
<path
    d="M12.5452 6.64433C12.2691 6.64433 12.0452 6.86819 12.0452 7.14433C12.0452 7.42047 12.2691 7.64433 12.5452 7.64433H12.5615C13.474 7.70863 14.1379 8.01277 14.6034 8.51201C15.0799 9.02617 15.3267 9.6648 15.3084 10.455C15.302 10.731 15.5207 10.96 15.7967 10.9664C16.0728 10.9728 16.3018 10.7542 16.3082 10.4781C16.3322 9.44062 15.9985 8.54598 15.3363 7.83165L15.3354 7.83071C14.6588 7.10462 13.7305 6.72051 12.6122 6.64545L12.5955 6.64433H12.5452Z"
    fill="white"
  />
<path
    d="M12.5263 8.31868C12.2505 8.30416 12.0152 8.51594 12.0007 8.7917C11.9862 9.06747 12.198 9.30278 12.4737 9.3173C12.8924 9.33933 13.1592 9.4649 13.327 9.63434C13.4956 9.80451 13.6216 10.077 13.6446 10.5042C13.6595 10.78 13.895 10.9915 14.1708 10.9766C14.4465 10.9618 14.658 10.7263 14.6432 10.4505C14.6109 9.85049 14.4231 9.32002 14.0376 8.93068C13.6513 8.54062 13.1238 8.35013 12.5263 8.31868Z"
    fill="white"
  />
<path
    fill-rule="evenodd"
    clip-rule="evenodd"
    d="M7.06673 2.38348C10.2488 1.67218 13.5487 1.67218 16.7308 2.38348L17.0699 2.45926C18.9667 2.88325 20.4637 4.33807 20.9418 6.22194C21.7495 9.40479 21.7495 12.739 20.9418 15.9218C20.4637 17.8057 18.9666 19.2605 17.0699 19.6845L16.7308 19.7603C14.732 20.2071 12.6867 20.3732 10.6533 20.2587L8.0001 22.6326C7.79637 22.8149 7.50959 22.8719 7.25164 22.7814C6.99369 22.6909 6.80543 22.4672 6.76029 22.1975L6.32148 19.5762C4.61909 19.0472 3.29919 17.669 2.85579 15.9218C2.04807 12.739 2.04807 9.40479 2.85579 6.22195C3.33386 4.33807 4.83092 2.88325 6.7277 2.45926L7.06673 2.38348ZM16.4036 3.84735C13.437 3.18422 10.3606 3.18422 7.39395 3.84735L7.05492 3.92313C5.71009 4.22374 4.64866 5.25522 4.3097 6.59091C3.56343 9.53161 3.56343 12.6121 4.3097 15.5528C4.64866 16.8885 5.71008 17.92 7.05492 18.2206L7.14448 18.2406C7.44237 18.3072 7.67018 18.5477 7.72058 18.8488L8.01485 20.6067L9.88722 18.9314C10.0384 18.7961 10.2379 18.7279 10.4403 18.7422C12.4338 18.8833 14.4427 18.7347 16.4036 18.2964L16.7426 18.2206C18.0875 17.92 19.1489 16.8885 19.4879 15.5529C20.2341 12.6121 20.2341 9.53161 19.4879 6.59091C19.1489 5.25522 18.0875 4.22374 16.7426 3.92313L16.4036 3.84735Z"
    fill="white"
  />
</svg>
