<svg width="24" height="25" viewBox="0 0 24 25" fill="none" xmlns="http://www.w3.org/2000/svg">
<rect y="0.561523" width="24" height="24" rx="12" fill="#754A91"/>
<path d="M9.19929 17.4673C9.19929 17.2661 9.19929 17.0649 9.19929 16.8638C9.20072 16.8555 9.20043 16.8471 9.19844 16.839C9.19645 16.8309 9.1928 16.8233 9.18772 16.8166C9.18264 16.81 9.17624 16.8044 9.1689 16.8003C9.16157 16.7962 9.15346 16.7936 9.14509 16.7928C8.64185 16.6511 8.17738 16.3988 7.78627 16.0545C7.5013 15.7976 7.26403 15.4932 7.08527 15.1551C6.83329 14.6667 6.6656 14.1399 6.58915 13.5967C6.49441 12.9152 6.46151 12.2267 6.49084 11.5394C6.49727 11.219 6.51381 10.9022 6.55056 10.5817C6.60917 9.97283 6.76419 9.37686 7.00993 8.81574C7.31337 8.12582 7.86386 7.57163 8.55525 7.26003C9.02623 7.04648 9.52172 6.89058 10.0308 6.79577C10.5299 6.70208 11.0354 6.64458 11.543 6.62372C12.0006 6.60769 12.4587 6.61437 12.9156 6.64375C13.5696 6.6711 14.2176 6.77842 14.845 6.96327C15.3101 7.09612 15.7526 7.29709 16.1578 7.55952C16.5527 7.82807 16.872 8.19178 17.0858 8.61638C17.3371 9.11231 17.5079 9.64439 17.592 10.193C17.6466 10.5188 17.6825 10.8473 17.6995 11.1771C17.7234 11.5858 17.7206 11.9964 17.705 12.4033C17.6894 12.8102 17.6545 13.2052 17.6039 13.604C17.5401 14.2024 17.3544 14.7818 17.0582 15.3071C16.6727 15.9717 16.055 16.4736 15.3218 16.7181C14.8204 16.8921 14.3027 17.0159 13.7765 17.0877C13.3915 17.1405 13.0056 17.1787 12.6179 17.1942C12.3212 17.2079 12.0244 17.2042 11.7277 17.1997C11.5595 17.1997 11.3923 17.1833 11.2251 17.1687C11.2087 17.1657 11.1917 17.1675 11.1764 17.174C11.161 17.1804 11.1479 17.1913 11.1388 17.2051C10.8007 17.6075 10.4497 17.9989 10.096 18.3885C10.0316 18.4596 9.95695 18.5209 9.87457 18.5706C9.82049 18.6057 9.75882 18.6278 9.69455 18.635C9.63027 18.6422 9.5652 18.6343 9.50457 18.612C9.44394 18.5896 9.38946 18.5535 9.34553 18.5065C9.30159 18.4594 9.26944 18.4028 9.25166 18.3412C9.21665 18.2317 9.19929 18.1174 9.20021 18.0026C9.19929 17.8223 9.19929 17.6448 9.19929 17.4673ZM9.60813 18.231L9.65131 18.191L10.4185 17.3471C10.7137 17.0225 11.0086 16.6975 11.3032 16.3722C11.3177 16.3524 11.3372 16.3367 11.3598 16.3268C11.3824 16.3168 11.4073 16.313 11.4318 16.3158C11.532 16.3258 11.6321 16.3294 11.7332 16.3303C12.0823 16.3303 12.4314 16.3303 12.7805 16.3057C13.0975 16.2812 13.4136 16.2429 13.7278 16.1938C14.0661 16.1354 14.401 16.0592 14.731 15.9653C15.466 15.7696 16.0347 15.3508 16.3921 14.6727C16.6031 14.2557 16.7354 13.8041 16.7826 13.34C16.8384 12.9026 16.8719 12.4626 16.8827 12.0218C16.899 11.4681 16.8609 10.9142 16.7688 10.3678C16.705 9.97196 16.5901 9.58587 16.427 9.21901C16.2194 8.76385 15.9254 8.38699 15.4725 8.14485C14.7779 7.77344 14.0264 7.60776 13.2519 7.52311C13.0323 7.49944 12.8127 7.48669 12.5922 7.4785C12.1407 7.45544 11.6883 7.45787 11.2371 7.48578C10.9126 7.50964 10.5898 7.55281 10.2705 7.61505C9.80102 7.69985 9.34681 7.85324 8.92275 8.0702C8.67691 8.19328 8.45387 8.35671 8.26309 8.55357C7.95391 8.89597 7.72711 9.30339 7.59976 9.74516C7.44869 10.2597 7.36622 10.7916 7.35446 11.3273C7.3249 11.863 7.33165 12.4001 7.37467 12.9349C7.40144 13.2532 7.45522 13.5686 7.53545 13.878C7.65482 14.36 7.88639 14.8077 8.21164 15.1852C8.56279 15.5703 9.01663 15.8492 9.52085 15.9899C9.58424 16.009 9.61273 16.0308 9.61273 16.1018C9.60721 16.364 9.61273 16.6262 9.61273 16.8883L9.60813 18.231Z" fill="white"/>
<path d="M8.96466 10.1001C8.95823 9.90077 9.06756 9.75603 9.19986 9.62586C9.37434 9.46024 9.56658 9.31403 9.77315 9.18982C9.86734 9.13226 9.97934 9.11033 10.0886 9.12806C10.1978 9.14579 10.2968 9.20198 10.3676 9.28631C10.6175 9.54662 10.8412 9.83046 11.0355 10.1338C11.1317 10.2703 11.2044 10.4216 11.2505 10.5817C11.2689 10.6441 11.2701 10.7104 11.254 10.7734C11.2378 10.8365 11.2049 10.8941 11.1586 10.9403C11.0526 11.0434 10.9397 11.1392 10.8205 11.2271C10.7605 11.2745 10.7158 11.3383 10.6922 11.4107C10.6685 11.483 10.6668 11.5607 10.6873 11.634C10.7609 11.9782 10.9276 12.296 11.1696 12.5534C11.4637 12.9091 11.8426 13.1866 12.2721 13.3608C12.3777 13.4146 12.4986 13.431 12.6148 13.4073C12.6785 13.3901 12.735 13.3534 12.7765 13.3026C12.8408 13.2216 12.9107 13.1433 12.9685 13.0568C13.0436 12.9489 13.1582 12.8744 13.288 12.849C13.4177 12.8237 13.5523 12.8496 13.6631 12.9212C13.9745 13.1002 14.2686 13.3074 14.5414 13.5402C14.6057 13.5948 14.6728 13.6476 14.7371 13.7031C14.8132 13.7606 14.8682 13.8413 14.8936 13.9327C14.9189 14.0241 14.9134 14.1213 14.8777 14.2093C14.8209 14.3572 14.7382 14.494 14.6333 14.6134C14.503 14.7929 14.3369 14.9441 14.1454 15.0577C14.0539 15.1109 13.951 15.1422 13.8451 15.149C13.7392 15.1558 13.6331 15.1379 13.5354 15.0968C12.7921 14.8003 12.0975 14.3956 11.4747 13.8961C10.8654 13.3992 10.333 12.8165 9.89442 12.1665C9.52536 11.6285 9.23174 11.0433 9.02162 10.4269C8.99925 10.3524 8.98085 10.2767 8.9665 10.2003C8.96241 10.167 8.9618 10.1335 8.96466 10.1001V10.1001Z" fill="white"/>
<path d="M12.1377 9.13213C12.7596 9.14352 13.3577 9.37082 13.8279 9.7744C14.298 10.178 14.6102 10.7322 14.7102 11.3405C14.7504 11.5617 14.7719 11.7858 14.7745 12.0105C14.7745 12.0633 14.7607 12.1015 14.7037 12.107C14.6468 12.1125 14.6321 12.0642 14.6321 12.016C14.6406 11.5614 14.5464 11.1108 14.3564 10.6969C14.1965 10.3569 13.9594 10.058 13.6638 9.82358C13.3683 9.58912 13.0221 9.4254 12.6522 9.34514C12.4566 9.30028 12.2566 9.27708 12.0559 9.27596C12.0364 9.27629 12.0169 9.27384 11.998 9.26867C11.982 9.26419 11.9683 9.25371 11.9599 9.23945C11.9515 9.22519 11.9491 9.20825 11.953 9.19221C11.9531 9.1846 11.9548 9.17709 11.9579 9.17011C11.9609 9.16314 11.9654 9.15684 11.9709 9.15159C11.9765 9.14634 11.9831 9.14223 11.9902 9.13952C11.9974 9.1368 12.0051 9.13553 12.0127 9.13577C12.0541 9.13031 12.0963 9.13213 12.1377 9.13213Z" fill="white"/>
<path d="M13.9108 11.6004C13.9077 11.3475 13.8449 11.0988 13.7273 10.8743C13.6097 10.6499 13.4407 10.4558 13.2337 10.3077C12.9922 10.1396 12.7114 10.0353 12.4179 10.0046C12.3683 9.99824 12.3187 9.99551 12.2681 9.99005C12.2176 9.98459 12.1873 9.96365 12.1919 9.91267C12.1965 9.86169 12.2286 9.84349 12.2837 9.84713C13.0977 9.89629 13.7905 10.3523 14.0036 11.2017C14.0426 11.3654 14.062 11.5332 14.0615 11.7014C14.0615 11.7169 14.0615 11.7324 14.0615 11.7469C14.0615 11.7925 14.0321 11.8225 13.9871 11.8216C13.9771 11.8213 13.9673 11.8189 13.9583 11.8147C13.9492 11.8105 13.9411 11.8045 13.9345 11.7971C13.9279 11.7897 13.9229 11.781 13.9197 11.7716C13.9166 11.7622 13.9155 11.7522 13.9163 11.7424C13.909 11.6996 13.9108 11.6559 13.9108 11.6004Z" fill="white"/>
<path d="M12.4843 10.5864C12.9308 10.6164 13.2422 10.8331 13.3277 11.3037C13.338 11.364 13.3454 11.4247 13.3497 11.4858C13.3497 11.5349 13.3387 11.5768 13.2845 11.5768C13.2303 11.5768 13.2119 11.5404 13.2101 11.4858C13.2096 11.3054 13.1535 11.1294 13.0493 10.9814C12.9398 10.8474 12.7826 10.7601 12.6101 10.7375C12.5716 10.7303 12.5326 10.7255 12.4934 10.7229C12.4291 10.7229 12.3933 10.6911 12.4016 10.6419C12.4098 10.5927 12.4484 10.5836 12.4843 10.5864Z" fill="white"/>
</svg>
