<svg width="24" height="25" viewBox="0 0 24 25" fill="none" xmlns="http://www.w3.org/2000/svg">
<rect y="0.803711" width="24" height="24" rx="12" fill="#2787F5"/>
<path fill-rule="evenodd" clip-rule="evenodd" d="M19.0036 9.34825C19.105 9.03098 19.0036 8.79785 18.5209 8.79785H16.9247C16.5188 8.79785 16.3317 8.99924 16.2302 9.22132C16.2302 9.22132 15.4185 11.0773 14.2686 12.2829C13.8966 12.6319 13.7275 12.7429 13.5245 12.7429C13.4231 12.7429 13.2762 12.6319 13.2762 12.3146V9.34825C13.2762 8.96753 13.1584 8.79785 12.8202 8.79785H10.3119C10.0583 8.79785 9.90574 8.97455 9.90574 9.14202C9.90574 9.50294 10.4807 9.58617 10.5399 10.6014V12.8064C10.5399 13.2898 10.4469 13.3775 10.2439 13.3775C9.70282 13.3775 8.38655 11.5132 7.60588 9.37996C7.45289 8.96534 7.29944 8.79785 6.8915 8.79785H5.29532C4.83926 8.79785 4.74805 8.99924 4.74805 9.22132C4.74805 9.61791 5.28919 11.5849 7.2677 14.1865C8.58669 15.9631 10.4451 16.9262 12.1361 16.9262C13.1507 16.9262 13.2762 16.7123 13.2762 16.3439V15.0011C13.2762 14.5733 13.3724 14.4879 13.6937 14.4879C13.9304 14.4879 14.3363 14.5989 15.2833 15.4555C16.3655 16.4708 16.5439 16.9262 17.1527 16.9262H18.7489C19.2049 16.9262 19.433 16.7123 19.3014 16.2902C19.1575 15.8695 18.6408 15.2591 17.9551 14.5355C17.5831 14.123 17.025 13.6789 16.8559 13.4568C16.6192 13.1713 16.6868 13.0443 16.8559 12.7905C16.8559 12.7905 18.8006 10.2207 19.0036 9.34825Z" fill="white"/>
</svg>
